<svg xmlns="http://www.w3.org/2000/svg" width="661" height="276" fill="none" viewBox="0 0 661 276"><path fill="#9333EA" d="M280.496 96h19.968l-73.216 179.2h-18.432l21.76-52.992L178.864 96h20.992l40.96 103.424L280.496 96Zm46.258 102.144 2.048-.256V275.2h-19.2V96h17.664l1.28 23.808c3.925-7.168 9.728-13.227 17.408-18.176 7.68-4.95 17.323-7.424 28.928-7.424 11.093 0 21.077 2.73 29.952 8.192 8.875 5.291 15.872 12.885 20.992 22.784 5.12 9.728 7.68 21.333 7.68 34.816 0 13.312-2.475 24.917-7.424 34.816-4.779 9.728-11.605 17.323-20.48 22.784-8.704 5.461-18.944 8.192-30.72 8.192-12.288 0-22.443-2.645-30.464-7.936-8.021-5.291-13.909-11.861-17.664-19.712ZM412.77 160c0-14.677-3.84-26.283-11.52-34.816-7.509-8.704-17.664-13.056-30.464-13.056-8.021 0-15.275 1.877-21.76 5.632-6.315 3.755-11.264 9.216-14.848 16.384-3.584 7.168-5.376 15.787-5.376 25.856 0 9.899 1.792 18.432 5.376 25.6 3.584 7.168 8.533 12.715 14.848 16.64 6.485 3.755 13.739 5.632 21.76 5.632 12.8 0 22.955-4.267 30.464-12.8 7.68-8.704 11.52-20.395 11.52-35.072Zm90.482 65.792c-11.947 0-22.613-2.901-32-8.704-9.216-5.803-16.469-13.739-21.76-23.808-5.291-10.069-7.936-21.589-7.936-34.56 0-12.459 2.645-23.552 7.936-33.28 5.291-9.728 12.544-17.323 21.76-22.784 9.216-5.632 19.712-8.448 31.488-8.448 11.605 0 21.931 2.56 30.976 7.68 9.216 5.12 16.384 12.203 21.504 21.248 5.12 9.045 7.509 19.371 7.168 30.976 0 1.877-.085 3.84-.256 5.888a567.162 567.162 0 0 0-.512 6.656h-99.072c.341 8.021 2.304 15.104 5.888 21.248 3.584 6.144 8.277 11.008 14.08 14.592 5.973 3.413 12.715 5.12 20.224 5.12 9.899 0 18.261-1.877 25.088-5.632 6.997-3.755 12.032-9.131 15.104-16.128l16.64 6.656c-5.12 10.752-12.544 19.029-22.272 24.832-9.728 5.632-21.077 8.448-34.048 8.448Zm38.144-75.776c.171-7.339-1.451-13.824-4.864-19.456-3.243-5.632-7.851-10.069-13.824-13.312-5.973-3.243-12.885-4.864-20.736-4.864-6.827 0-13.056 1.621-18.688 4.864s-10.325 7.765-14.08 13.568c-3.584 5.632-5.717 12.032-6.4 19.2h78.592ZM578.632 96h17.664l1.024 18.688a50.374 50.374 0 0 1 12.288-11.776 46.146 46.146 0 0 1 16.128-6.656c5.973-1.365 12.288-1.45 18.944-.256v19.2c-7.168-1.365-13.653-1.365-19.456 0-5.632 1.365-10.496 3.925-14.592 7.68s-7.253 8.533-9.472 14.336c-2.219 5.632-3.328 12.203-3.328 19.712V224h-19.2V96Zm51.576 129.28c-3.925 0-7.253-1.365-9.984-4.096-2.56-2.731-3.84-6.059-3.84-9.984s1.28-7.253 3.84-9.984c2.731-2.731 6.059-4.096 9.984-4.096 3.755 0 6.997 1.365 9.728 4.096s4.096 6.059 4.096 9.984-1.365 7.253-4.096 9.984-5.973 4.096-9.728 4.096ZM49.839 268.086l18.234 4.008Zm18.234 4.008L87.483 274ZM87.483 274h19.802ZM4.157 216.564 2 226.487ZM2 226.487l2.157 9.923Zm2.157 9.923 6.143 9.661Zm6.143 9.661 9.934 8.674Zm9.934 8.674 13.528 7.426Zm13.528 7.426 16.077 5.915Zm19.475-9.003 16.992 3.746Zm16.993 3.746 17.906 1.84Zm17.906 1.84h18.495ZM11.28 205.392l-1.895 9.266Zm-1.895 9.266 1.895 9.332Zm1.895 9.332 5.555 8.674Zm5.555 8.674 9.215 8.083Zm9.215 8.083 12.352 6.835Zm12.352 6.835 14.835 5.586Zm17.907-8.083 15.75 3.417Zm15.751 3.417 16.664 1.906Zm16.664 1.906h17.319ZM17.097 195.14l-1.83 8.675Zm-1.83 8.675 1.83 8.675Zm1.83 8.675 5.293 8.083Zm5.293 8.083 8.627 7.491Zm8.627 7.491 11.437 6.506Zm11.437 6.506 13.855 4.929Zm16.666-7.491 14.508 3.154Zm14.508 3.154 15.75 1.84Zm15.75 1.84h16.077ZM22.39 185.48l-1.895 8.083Zm-1.895 8.083 1.895 8.083Zm1.895 8.083 4.902 7.755Zm4.902 7.755 8.038 6.834Zm8.038 6.834 10.784 6.243Zm10.784 6.243 13.005 4.601Zm15.162-6.834 13.92 3.089Zm13.92 3.089 14.77 1.511Zm14.77 1.511h15.162Zm-63.262-43.767-1.569 7.492Zm-1.569 7.492 1.569 7.754Zm1.569 7.754 4.64 7.163Zm4.64 7.163 7.385 6.506Zm7.385 6.506 10.195 5.586Zm10.195 5.586 12.352 4.666Zm14.182-5.914 13.005 2.76Zm13.005 2.76 14.182 1.577Zm14.182 1.577h14.182Zm-60.191-41.599-1.568 7.163Zm-1.568 7.163 1.568 7.098Zm1.568 7.098 4.64 7.163Zm4.64 7.163 7.058 6.243Zm7.058 6.243 9.607 5.257Zm9.607 5.257 11.699 4.338Zm12.94-5.586 12.68 2.76Zm12.679 2.76 13.594 1.578Zm13.594 1.578h13.593Zm-57.773-40.022-1.503 6.769Zm-1.503 6.769 1.503 7.163Zm1.503 7.163 4.313 6.506Zm4.313 6.506 6.797 5.915Zm6.797 5.915 9.28 5.257Zm9.28 5.257 11.11 4.074Zm12.353-5.257 12.024 2.825Zm12.024 2.825 13.006 1.249Zm13.006 1.249h13.593ZM33.5 158.208l1.504 6.506Zm1.504 6.506 4.052 6.506Zm4.052 6.506 6.796 5.586Zm6.796 5.586 8.954 4.994Zm8.954 4.994 10.783 4.009Zm11.437-4.666 12.025 2.76Zm12.025 2.76 12.678 1.249Zm12.679 1.249h12.94Zm-55.943-31.347 1.241 6.506Zm1.241 6.506 4.052 6.506Zm4.052 6.506 6.47 5.652Zm6.47 5.652 8.954 4.928Zm8.953 4.928 10.523 3.746Zm10.784-4.666 11.764 2.826Zm11.764 2.826 12.678 1.249Zm12.679 1.249h12.94Zm-55.29-30.755 1.242 6.506Zm1.242 6.506 3.986 5.914Zm3.987 5.914 6.47 5.914Zm6.469 5.914 8.693 4.666Zm8.693 4.666 10.456 3.68Zm10.456-4.074 11.764 2.497Zm11.764 2.497 12.678 1.577Zm12.679 1.577h12.94Zm-55.29-31.084 1.242 6.506Zm1.242 6.506 3.986 6.243Zm3.987 6.243 6.47 5.586Zm6.469 5.586 8.693 4.929Zm8.693 4.929 10.456 3.746Zm10.195-4.009 12.025 2.826Zm12.025 2.826 12.678 1.183Zm12.679 1.183h12.94Zm12.94-62.365h-12.94Zm-12.94 0-12.68 1.249Zm-12.679 1.249h-.327Zm-43.264 30.098 1.241 6.506Zm1.241 6.506 4.052 6.243Zm4.052 6.243 6.47 5.586Zm6.47 5.586 8.954 4.929Zm8.953 4.929 10.523 3.745Zm9.87-3.681 12.024 2.76Zm12.024 2.76 13.006 1.249Zm13.006 1.249h13.593Zm13.593-63.613H90.62Zm-13.593 0-13.006 1.183Zm-13.006 1.183L65.59 90.19ZM65.59 90.191l-7.713 2.826Zm-30.586 34.436 4.052 6.571Zm4.052 6.571 6.796 5.586Zm6.796 5.586 8.954 4.929Zm8.954 4.929 10.783 4.074Zm9.541-3.417 12.68 2.826Zm12.679 2.826 13.594 1.511Zm13.594 1.511h13.593Zm13.593-66.111H90.62Zm-13.593 0L77.026 78.1ZM77.026 78.1l-12.678 2.76Zm-12.679 2.76-11.11 4.074Zm-11.11 4.074L45.2 89.271Zm-20.39 31.675 4.313 6.506Zm4.313 6.506 6.797 5.915Zm6.797 5.915 9.28 5.257Zm9.28 5.257 11.11 4.009Zm9.869-3.417 13.005 3.088Zm13.005 3.088 14.182 1.578Zm14.182 1.578h14.182ZM104.475 66.6H90.293Zm-14.182 0L76.11 68.175Zm-14.182 1.576-13.005 2.76Zm-13.005 2.76-11.699 4.338Zm-11.699 4.338L41.8 80.597ZM41.8 80.597l-6.143 5.257Zm-11.698 27.601 4.64 6.834Zm4.64 6.834 7.058 6.178Zm7.058 6.178 9.607 5.585Zm9.607 5.585 11.699 4.075Zm9.869-3.417 13.92 3.155Zm13.92 3.155 14.77 1.511Zm14.77 1.511h15.162Zm15.162-72.288H89.966Zm-15.162 0-14.77 1.511Zm-14.77 1.511-13.92 3.09Zm-13.92 3.089-12.352 4.666Zm-12.352 4.666-10.195 5.586Zm-10.195 5.586-7.385 6.572Zm-7.385 6.572-3.137 4.928Zm-4.64 22.343 4.64 7.097Zm4.64 7.097 7.385 6.835Zm7.385 6.835 10.195 5.586Zm10.195 5.586 12.352 4.337Zm10.196-3.089 14.508 3.089Zm14.508 3.089 15.75 1.577Zm15.75 1.577h16.077Zm16.077-76.691H89.378Zm-16.077 0-15.75 1.84Zm-15.75 1.84-14.509 3.154ZM59.12 48.922l-13.006 4.665Zm-13.006 4.665L35.33 59.765ZM35.33 59.765l-8.038 6.834ZM27.292 66.6l-4.902 7.754Zm-4.902 7.754-.98 4.008Zm0 16.166 4.902 7.426Zm4.902 7.426 8.038 7.163Zm8.038 7.163 10.784 5.914Zm10.784 5.914 13.005 4.929Zm10.195-3.154 15.75 3.417Zm15.751 3.417 16.664 1.906Zm16.664 1.906h17.319Zm17.319-82.014H88.724Zm-17.319 0L72.06 33.084ZM72.06 33.084 56.308 36.5Zm-15.751 3.417L42.454 41.43ZM42.454 41.43l-11.437 6.506Zm-11.437 6.506-8.627 7.491Zm-8.627 7.491-5.293 8.084Zm-5.293 8.083-1.83 8.675Zm-1.83 8.675.327 1.577Zm1.83 8.675 5.293 8.083Zm5.293 8.083 8.627 7.426Zm8.627 7.426 11.437 6.571Zm11.437 6.571 13.855 4.929Zm10.783-3.154 16.992 3.746Zm16.993 3.746 17.906 1.906Zm17.906 1.906h18.495Zm18.495-88.192H88.136Zm-18.495 0-17.907 1.84Zm-17.906 1.84-16.993 3.746Zm-16.993 3.746-14.835 5.586Zm-14.835 5.586L26.05 35.252ZM26.05 35.252l-9.215 8.084Zm-9.215 8.084L11.28 52.01ZM11.28 52.01l-1.895 9.332Zm-1.895 9.332 1.569 8.346Zm1.895 9.266 5.555 8.74Zm5.555 8.74 9.215 8.018Zm9.215 8.018L38.402 94.2ZM38.402 94.2l14.835 5.586Zm11.437-3.089 18.234 4.075Zm18.234 4.075 19.41 1.84Zm19.41 1.84h19.802ZM107.285 2H87.483ZM87.483 2l-19.41 1.906Zm-19.41 1.906L49.839 7.915ZM49.839 7.915l-16.077 5.914Zm-16.077 5.914-13.528 7.426Zm-13.528 7.426L10.3 29.93ZM10.3 29.93l-6.143 9.66Zm-6.143 9.66L2 49.513ZM2 49.513l2.157 9.923Zm2.157 9.923 6.143 9.66Zm6.143 9.66 9.934 8.675Zm9.934 8.675 13.528 7.426Zm13.528 7.426 16.077 5.914Zm16.077 182.889 3.398-14.918Zm3.398-14.918 3.072-13.669Zm3.072-13.669 2.81-12.42Zm2.811-12.42 2.156-11.435Zm2.156-11.435 1.83-10.58Zm1.83-10.58 1.241-9.924Zm1.241-9.924 1.242-9.331Zm1.243-9.331.653-8.675Zm.653-8.675.261-8.412Zm.261-8.412v-7.754Zm0-7.754-.261-7.755Zm-.261-7.755-.654-7.426Zm-.653-7.426-1.243-7.491Zm-1.243-7.491-1.241-7.426Zm-1.241-7.426-1.83-7.492Zm-1.83-7.492-2.157-7.426Zm-2.156-7.426-2.811-8.083Zm-2.811-8.083-3.072-8.083Zm-3.072-8.083-3.398-8.675Zm14.836 172.308 2.156-15.18Zm2.157-15.18 1.83-13.998Zm1.83-13.998 1.568-12.683Zm1.568-12.683 1.568-11.5Zm1.568-11.5.915-10.909Zm.915-10.909.915-9.924Zm.915-9.924.588-9.266Zm.588-9.266.654-8.74Zm.654-8.74v-8.346Zm0-8.346v-8.083Zm0-8.083v-7.426Zm0-7.426-.654-7.492Zm-.654-7.492-.588-7.425Zm-.588-7.425-.915-7.164Zm-.915-7.164-.915-7.425Zm-.915-7.425-1.568-7.492Zm-1.568-7.492-1.569-7.755Zm-1.568-7.755-1.83-7.754Zm-1.83-7.754-2.157-8.346ZM87.483 274l.653-15.246Zm.653-15.246.588-13.932Zm.588-13.932.654-12.749Zm.654-12.749.588-11.829Zm.588-11.829.327-10.843Zm.327-10.843.327-9.923Zm.327-9.923v-9.595Zm0-9.595.326-8.74Zm.327-8.74v-8.346Zm0-8.346v-7.755Zm0-7.755v-7.82Zm0-7.82-.327-7.426Zm-.327-7.426v-7.163Zm0-7.163-.327-7.097Zm-.327-7.097-.327-7.492Zm-.327-7.492-.588-7.426Zm-.588-7.426-.654-7.426Zm-.654-7.426-.588-7.754Zm-.588-7.754-.653-8.412ZM107.285 274l-.654-15.246Zm-.654-15.246-.588-13.932Zm-.588-13.932-.588-12.749Zm-.588-12.749-.327-11.829Zm-.327-11.829-.653-10.843Zm-.653-10.843-.262-9.923Zm-.262-9.923v-9.595Zm0-9.595-.326-8.74Zm-.326-8.74v-8.346Zm0-8.346v-7.755Zm0-7.755v-7.82Zm0-7.82.326-7.426Zm.326-7.426v-7.163Zm0-7.163.262-7.097Zm.262-7.097.653-7.492Zm.653-7.492.327-7.426Zm.327-7.426.588-7.426Zm.588-7.426.588-7.754Zm.588-7.754.654-8.412Zm-2.745-8.412.001-2.169Zm.001-2.169.326-8.674Zm.326-8.674v-9.66Zm0-9.661.262-9.923Zm.262-9.922.653-10.844Zm.653-10.844.327-11.829Zm.327-11.829.588-12.749Zm.588-12.749.588-13.932Zm.588-13.932L107.285 2Zm-15.684 79.78v-2.169Zm0-2.169-.327-8.674Zm-.327-8.674v-9.66Zm0-9.661-.327-9.923Zm-.327-9.922-.327-10.844Zm-.327-10.844-.588-11.829Zm-.588-11.829-.654-12.749Zm-.654-12.749-.588-13.932Zm-.588-13.932L87.483 2Zm-9.868 78.86-.654-8.74Zm-.654-8.74-.588-9.266Zm-.588-9.266-.915-9.924Zm-.915-9.924-.915-10.909Zm-.915-10.909-1.568-11.5Zm-1.568-11.5-1.569-12.683ZM72.06 33.084l-1.83-13.998Zm-1.83-13.998-2.157-15.18Zm-4.314 75.443-.327-4.338Zm-.326-4.338-1.243-9.331Zm-1.243-9.331-1.241-9.924Zm-1.241-9.924-1.83-10.58Zm-1.83-10.58-2.157-11.434ZM59.12 48.922l-2.811-12.42Zm-2.811-12.421-3.072-13.669Zm-3.072-13.669L49.84 7.915Zm1.243 69.199-1.243-7.097Zm-1.243-7.097-1.83-9.66Zm-1.83-9.66-2.483-10.252Zm-2.483-10.252-2.81-11.435Zm-2.81-11.435-3.66-12.157Zm-3.66-12.157-4.052-13.012Zm-4.052-13.012-4.64-14.589Zm5.294 60.525L41.8 80.597ZM41.8 80.597l-3.071-9.99Zm-3.071-9.989L35.33 59.765ZM35.33 59.765l-4.313-11.83Zm-4.313-11.829L26.05 35.252ZM26.05 35.252l-5.816-13.997Zm8.039 49.945-2.745-8.017Zm-2.745-8.017L27.292 66.6ZM27.292 66.6 22.39 55.426ZM22.39 55.427l-5.555-12.091Zm-5.555-12.091L10.3 29.93ZM4.157 216.564l7.123-11.172Zm7.123-11.172 5.817-10.252Zm5.817-10.252 5.293-9.66Zm5.293-9.66 4.314-9.003Zm4.314-9.003 3.398-8.675Zm3.398-8.675 2.745-8.346Zm2.745-8.346 1.242-4.994Zm-7.973-79.188-2.484-5.914Zm-2.484-5.914L17.097 63.51ZM17.097 63.51l-5.817-11.5Zm-5.817-11.5L4.157 39.59ZM2 226.487l7.385-11.829Zm7.385-11.829 5.882-10.843Zm5.882-10.843 5.228-10.252Zm5.228-10.252 4.64-9.594Zm4.64-9.594 3.399-9.004Zm3.399-9.004 2.81-8.74Zm2.81-8.74 2.157-8.017Zm2.156-8.017 1.504-8.412Zm1.504-8.412.653-7.754Zm.653-7.754v-8.084Zm0-8.084-.653-7.754Zm-.653-7.754-.915-4.666Zm-18.495-51.85-1.242-2.169Zm-1.242-2.169L9.385 61.342ZM9.385 61.342 2 49.513ZM4.157 236.41l7.123-12.42Zm7.123-12.42 5.817-11.5Zm5.817-11.5 5.293-10.844Zm5.293-10.844 4.314-9.923Zm4.314-9.923 3.398-9.66Zm3.398-9.66 2.745-8.675Zm2.745-8.675 2.157-8.674Zm2.157-8.674 1.241-8.412Zm1.241-8.412.654-7.754Zm.654-7.754v-8.084Zm0-8.084-.654-7.754Zm-.654-7.754-1.241-8.083Zm-1.241-8.083-2.157-8.018Zm-2.157-8.018-2.745-8.411Zm-2.745-8.411-3.398-8.675Zm-3.398-8.675L22.39 90.52ZM22.39 90.52l-5.293-9.66Zm-5.293-9.66L11.28 70.608ZM11.28 70.608 4.157 59.436Zm-.98 175.463 6.535-13.407Zm6.535-13.407 5.555-12.091Zm5.555-12.091 4.902-11.172Zm4.902-11.172 4.052-10.515Zm4.052-10.515 3.398-9.66Zm3.398-9.66 2.418-9.332Zm2.418-9.332 1.896-8.674Zm1.896-8.674 1.241-8.412Zm1.241-8.412.589-8.346Zm.589-8.346v-7.755Zm0-7.755-.589-7.754Zm-.589-7.754-1.241-7.755Zm-1.241-7.755-1.896-8.083Zm-1.896-8.083-2.418-8.083Zm-2.418-8.083-3.398-8.412Zm-3.398-8.412-4.052-8.674Zm-4.052-8.674-4.902-9.003Zm-4.902-9.003-5.555-9.595Zm-5.555-9.595L10.3 69.096Zm3.399 175.397 5.816-13.998Zm5.816-13.998 4.967-12.683Zm4.967-12.683 4.313-11.829Zm4.313-11.829 3.399-10.843Zm3.399-10.843 3.071-9.923Zm3.071-9.923 2.157-9.66Zm2.157-9.66 1.895-9.003Zm1.895-9.003.915-8.346Zm.915-8.346.588-8.084Zm.588-8.084v-8.083Zm0-8.083-.588-7.754Zm-.588-7.754-.915-7.755Zm-.915-7.755-1.895-7.754Zm-1.895-7.754-2.157-7.82Zm-2.157-7.82-3.071-7.755Zm-3.071-7.755-3.399-8.346Zm-3.399-8.346-4.313-8.74Zm-4.313-8.74-4.967-9.003Zm-4.967-9.003-5.816-9.595Zm7.712 174.805 4.64-14.589Zm4.64-14.589 4.052-13.012Zm4.052-13.012 3.66-12.092Zm3.66-12.092 2.81-11.5Zm2.81-11.5 2.483-10.252Zm2.483-10.252 1.83-9.66Zm1.83-9.66 1.569-9.266Zm1.569-9.266.915-8.412Zm.914-8.412.328-8.346Zm.328-8.346v-7.82Zm0-7.82-.327-7.754Zm-.328-7.754-.914-7.755Zm-.914-7.755-1.569-7.426Zm-1.569-7.426-1.83-7.492Zm-1.83-7.492-2.483-7.754Zm-2.483-7.754-2.81-8.018Zm-2.81-8.018-3.66-8.083Zm-3.66-8.083-4.052-8.74Zm-4.052-8.74-4.64-9.003Zm106.523 173.967-18.233 4.009Zm-18.233 4.009L107.285 274Zm63.916-55.53 2.156 9.923Zm2.156 9.923-2.156 9.923Zm-2.156 9.923-6.144 9.66Zm-6.144 9.66-9.933 8.675Zm-9.933 8.675-13.529 7.426Zm-13.529 7.426-16.077 5.914Zm-19.475-9.003-16.992 3.745Zm-16.992 3.745-17.904 1.759Zm58.949-51.521 1.895 9.266Zm1.895 9.266-1.895 9.332Zm-1.895 9.332-5.555 8.674Zm-5.555 8.674-9.215 8.083Zm-9.215 8.083-12.352 6.835Zm-12.352 6.835-14.835 5.586Zm-17.907-8.083-15.75 3.417Zm-15.75 3.417-16.662 1.824Zm54.963-47.776 1.83 8.675Zm1.83 8.675-1.83 8.674Zm-1.83 8.674-5.294 8.083Zm-5.294 8.083-8.627 7.492Zm-8.627 7.492-11.437 6.506Zm-11.437 6.506-13.855 4.929Zm-16.665-7.492-14.508 3.155Zm-14.508 3.155-15.682 1.758Zm51.237-44.753 1.895 8.083Zm1.895 8.083-1.895 8.083Zm-1.895 8.083-4.902 7.755Zm-4.902 7.755-8.038 6.834Zm-8.038 6.834-10.783 6.243Zm-10.783 6.243-13.006 4.6Zm-15.163-6.834-13.92 3.088Zm-13.92 3.088-14.44 1.43Zm48.493-42.255 1.568 7.491Zm1.568 7.491-1.568 7.755Zm-1.568 7.755-4.64 7.163Zm-4.64 7.163-7.385 6.506Zm-7.385 6.506-10.196 5.586Zm-10.196 5.586-12.352 4.666Zm-14.181-5.915-13.006 2.76Zm-13.006 2.76-14.178 1.496Zm46.009-40.021 1.569 7.163Zm1.569 7.163-1.569 7.098Zm-1.569 7.098-4.64 7.163Zm-4.64 7.163-7.058 6.243Zm-7.058 6.243-9.607 5.257Zm-9.607 5.257-11.698 4.337Zm-12.94-5.586-12.679 2.76Zm-12.679 2.76-13.525 1.496Zm44.179-38.444 1.504 6.769Zm1.504 6.769-1.504 7.163Zm-1.504 7.163-4.313 6.506Zm-4.313 6.506-6.797 5.914Zm-6.797 5.914-9.28 5.258Zm-9.28 5.258-11.11 4.074Zm-12.352-5.258-12.025 2.826Zm-12.025 2.826-12.937 1.167Zm44.114-30.426-1.503 6.505Zm-1.503 6.505-4.052 6.506Zm-4.052 6.506-6.797 5.586Zm-6.797 5.586-8.953 4.995Zm-8.953 4.995-10.784 4.008Zm-11.437-4.666-12.025 2.76Zm-12.025 2.76-12.61 1.167Zm43.264-30.098-1.242 6.506Zm-1.242 6.506-4.052 6.506Zm-4.052 6.506-6.47 5.651Zm-6.47 5.651-8.953 4.929Zm-8.953 4.929-10.522 3.746Zm-10.784-4.666-11.763 2.826Zm-11.763 2.826-12.61 1.167Zm42.61-29.507-1.242 6.506Zm-1.242 6.506-3.986 5.915Zm-3.986 5.915-6.47 5.914Zm-6.47 5.914-8.692 4.666Zm-8.692 4.666-10.457 3.68Zm-10.457-4.074-11.763 2.497Zm-11.763 2.497-12.61 1.495Zm42.61-29.507-1.242 6.506Zm-1.242 6.506-3.986 6.243Zm-3.986 6.243-6.47 5.586Zm-6.47 5.586-8.692 4.929Zm-8.692 4.929-10.457 3.746Zm-10.195-4.009-12.025 2.826Zm-12.025 2.826-12.61 1.101Zm-12.61-61.264 12.61 1.33Zm12.61 1.331h.326Zm43.264 30.098-1.242 6.506Zm-1.242 6.506-4.052 6.243Zm-4.052 6.243-6.47 5.585Zm-6.47 5.585-8.953 4.929Zm-8.953 4.929-10.522 3.746Zm-9.869-3.68-12.025 2.76Zm-12.025 2.76-12.937 1.167Zm-12.937-62.446 12.937 1.264Zm12.937 1.264 12.025 2.826Zm12.025 2.826 7.712 2.826Zm30.586 34.435-4.052 6.572Zm-4.052 6.572-6.797 5.586Zm-6.797 5.586-8.953 4.929Zm-8.953 4.929-10.784 4.074Zm-9.542-3.418-12.679 2.826Zm-12.679 2.826-13.525 1.43Zm-13.525-64.681 13.525 1.66Zm13.525 1.659 12.679 2.76Zm12.679 2.76 11.11 4.075Zm11.11 4.075 8.039 4.337Zm20.39 31.675-4.313 6.506Zm-4.313 6.506-6.797 5.914Zm-6.797 5.914-9.28 5.258Zm-9.28 5.258-11.11 4.008Zm-9.868-3.418-13.006 3.089Zm-13.006 3.089-14.178 1.496ZM104.475 66.6l14.178 1.658Zm14.178 1.658 13.006 2.76Zm13.006 2.76 11.698 4.337Zm11.698 4.337 9.607 5.323Zm9.607 5.323 6.143 5.258Zm11.698 27.601-4.64 6.835Zm-4.64 6.835-7.058 6.177Zm-7.058 6.177-9.607 5.586Zm-9.607 5.586-11.698 4.074Zm-9.869-3.417-13.92 3.154Zm-13.92 3.154-14.44 1.43Zm-14.44-70.858 14.44 1.593Zm14.44 1.594 13.92 3.088Zm13.92 3.088 12.352 4.666Zm12.352 4.666 10.196 5.586Zm10.196 5.586 7.385 6.571Zm7.385 6.571 3.137 4.929Zm4.64 22.344-4.64 7.097Zm-4.64 7.097-7.385 6.835Zm-7.385 6.835-10.196 5.586Zm-10.196 5.586-12.352 4.337Zm-10.195-3.089-14.508 3.089Zm-14.508 3.089-15.682 1.495Zm-15.682-75.196 15.682 1.922Zm15.682 1.922 14.508 3.154Zm14.508 3.154 13.006 4.666Zm13.006 4.666 10.783 6.177Zm10.783 6.177 8.038 6.835Zm8.038 6.834 4.902 7.755Zm4.902 7.755.98 4.01Zm0 16.167-4.902 7.426Zm-4.902 7.426-8.038 7.163Zm-8.038 7.163-10.783 5.914Zm-10.783 5.914-13.006 4.929Zm-10.196-3.154-15.75 3.417Zm-15.75 3.417-16.662 1.824Zm-16.662-80.19 16.662 1.988Zm16.662 1.988 15.75 3.417Zm15.75 3.417 13.855 4.928Zm13.855 4.928 11.437 6.506Zm11.437 6.506 8.627 7.492Zm8.627 7.493 5.294 8.082Zm5.294 8.082 1.83 8.675Zm1.83 8.675-.327 1.577Zm-1.83 8.674-5.294 8.083Zm-5.294 8.083-8.627 7.426Zm-8.627 7.426-11.437 6.572Zm-11.437 6.572-13.855 4.929Zm-10.783-3.154-16.992 3.745Zm-16.992 3.745-17.904 1.825Zm-17.904-86.367 17.904 1.922Zm17.904 1.922 16.992 3.746Zm16.992 3.746 14.835 5.586Zm14.835 5.586 12.352 6.834Zm12.352 6.834 9.215 8.083Zm9.215 8.083 5.555 8.675Zm5.555 8.675 1.895 9.332Zm1.895 9.332-1.568 8.346Zm-1.895 9.266-5.555 8.74Zm-5.555 8.74-9.215 8.017Zm-9.215 8.017-12.352 6.835Zm-12.352 6.835-14.835 5.586Zm-11.437-3.089-18.233 4.075Zm-18.233 4.074-19.407 1.759ZM107.285 2l19.407 1.987Zm19.407 1.987 18.233 4.01Zm18.233 4.009 16.077 5.915Zm16.077 5.914 13.529 7.427Zm13.529 7.427 9.933 8.674Zm9.933 8.674 6.144 9.66Zm6.144 9.661 2.156 9.923Zm2.156 9.923-2.156 9.923Zm-2.156 9.923-6.144 9.66Zm-6.144 9.66-9.933 8.675Zm-9.933 8.675-13.529 7.426Zm-13.529 7.426-16.077 5.914Zm-16.077 182.888-3.398-14.917Zm-3.398-14.917-3.072-13.669Zm-3.072-13.669-2.81-12.421Zm-2.81-12.421-2.157-11.434Zm-2.157-11.434-1.829-10.581Zm-1.829-10.581-1.242-9.923Zm-1.242-9.923-1.242-9.332Zm-1.242-9.332-.653-8.674Zm-.653-8.674-.262-8.412Zm-.262-8.412v-7.754Zm0-7.754.262-7.755Zm.262-7.755.653-7.426Zm.653-7.426 1.242-7.492Zm1.242-7.492 1.242-7.426Zm1.242-7.426 1.829-7.491Zm1.829-7.491 2.157-7.426Zm2.157-7.426 2.81-8.083Zm2.81-8.083 3.072-8.083Zm3.072-8.083 3.398-8.675Zm-14.835 172.308-2.157-15.181Zm-2.157-15.181-1.83-13.997Zm-1.83-13.997-1.568-12.683Zm-1.568-12.683-1.569-11.501Zm-1.569-11.501-.915-10.909Zm-.915-10.909-.915-9.923Zm-.915-9.923-.588-9.266Zm-.588-9.266-.653-8.74Zm-.653-8.74v-8.346Zm0-8.346v-8.083Zm0-8.083v-7.426Zm0-7.426.653-7.492Zm.653-7.492.588-7.426Zm.588-7.426.915-7.163Zm.915-7.163.915-7.426Zm.915-7.426 1.569-7.491Zm1.569-7.491 1.568-7.755Zm1.568-7.755 1.83-7.755Zm1.83-7.755 2.157-8.346ZM107.285 274l-.654-15.246Zm-.654-15.246-.588-13.932Zm-.588-13.932-.588-12.749Zm-.588-12.749-.327-11.829Zm-.327-11.829-.653-10.843Zm-.653-10.843-.262-9.923Zm-.262-9.923v-9.595Zm0-9.595-.326-8.74Zm-.326-8.74v-8.346Zm0-8.346v-7.755Zm0-7.755v-7.82Zm0-7.82.326-7.426Zm.326-7.426v-7.163Zm0-7.163.262-7.097Zm.262-7.097.653-7.492Zm.653-7.492.327-7.426Zm.327-7.426.588-7.426Zm.588-7.426.588-7.754Zm.588-7.754.654-8.412Zm-2.745-8.412.001-2.169Zm.001-2.169.326-8.674Zm.326-8.674v-9.66Zm0-9.661.262-9.923Zm.262-9.922.653-10.844Zm.653-10.844.327-11.829Zm.327-11.829.588-12.749Zm.588-12.749.588-13.932Zm.588-13.932L107.285 2Zm9.866 78.942.653-8.74Zm.653-8.741.588-9.266Zm.588-9.266.915-9.923Zm.915-9.923.915-10.909Zm.915-10.908 1.569-11.501Zm1.569-11.501 1.568-12.683Zm1.568-12.683 1.83-13.998Zm1.83-13.998 2.157-15.18Zm4.313 75.442.327-4.337Zm.327-4.337 1.242-9.332Zm1.242-9.332 1.242-9.923Zm1.242-9.923 1.829-10.58Zm1.829-10.58 2.157-11.435Zm2.157-11.435 2.81-12.42Zm2.81-12.42 3.072-13.67Zm3.072-13.669 3.398-14.918Zm-1.242 69.199 1.242-7.097Zm1.242-7.097 1.83-9.66Zm1.83-9.661 2.483-10.251Zm2.483-10.251 2.811-11.435Zm2.811-11.435 3.659-12.157Zm3.659-12.158 4.052-13.011Zm4.052-13.011 4.64-14.59Zm-5.293 60.524 1.895-8.346Zm1.895-8.346 3.072-9.988Zm3.072-9.988 3.398-10.844Zm3.398-10.844 4.313-11.828Zm4.313-11.829 4.967-12.683Zm4.967-12.683 5.817-13.997Zm-8.038 49.945 2.745-8.018Zm2.745-8.018 4.051-10.58Zm4.051-10.581 4.902-11.17Zm4.902-11.17 5.555-12.093Zm5.555-12.093 6.535-13.406Zm12.679 173.229-7.124-11.172Zm-7.124-11.172-5.816-10.252Zm-5.816-10.252-5.294-9.66Zm-5.294-9.66-4.313-9.003Zm-4.313-9.003-3.399-8.675Zm-3.399-8.675-2.745-8.346Zm-2.745-8.346-1.241-4.994Zm7.974-79.188 2.483-5.915Zm2.483-5.915 5.294-10.843Zm5.294-10.843 5.816-11.5Zm5.816-11.5 7.124-12.42Zm9.28 174.477-7.385-11.829Zm-7.385-11.829-5.881-10.843Zm-5.881-10.843-5.229-10.252Zm-5.229-10.252-4.64-9.595Zm-4.64-9.595-3.398-9.003Zm-3.398-9.003-2.81-8.74Zm-2.81-8.74-2.157-8.017Zm-2.157-8.017-1.503-8.412Zm-1.503-8.412-.654-7.755Zm-.654-7.755v-8.083Zm0-8.083.654-7.754Zm.654-7.754.915-4.666Zm18.495-51.851 1.242-2.168Zm1.242-2.168 5.881-10.843Zm5.881-10.843 7.385-11.83Zm5.229 175.068-7.124-12.42Zm-7.124-12.42-5.816-11.501Zm-5.816-11.501-5.294-10.843Zm-5.294-10.843-4.313-9.923Zm-4.313-9.923-3.399-9.66Zm-3.399-9.66-2.745-8.675Zm-2.745-8.675-2.156-8.675Zm-2.156-8.675-1.242-8.411Zm-1.242-8.411-.654-7.755Zm-.654-7.755v-8.083Zm0-8.083.654-7.754Zm.654-7.754 1.242-8.084Zm1.242-8.084 2.156-8.017Zm2.156-8.017 2.745-8.412Zm2.745-8.412 3.399-8.674Zm3.399-8.674 4.313-9.003Zm4.313-9.003 5.294-9.66Zm5.294-9.661 5.816-10.251Zm5.816-10.251 7.124-11.172Zm.98 175.462-6.535-13.406Zm-6.535-13.406-5.555-12.092Zm-5.555-12.092-4.902-11.171Zm-4.902-11.171-4.051-10.515Zm-4.051-10.515-3.399-9.66Zm-3.399-9.66-2.418-9.332Zm-2.418-9.332-1.895-8.675Zm-1.895-8.675-1.242-8.411Zm-1.242-8.411-.588-8.346Zm-.588-8.346v-7.755Zm0-7.755.588-7.754Zm.588-7.754 1.242-7.755Zm1.242-7.755 1.895-8.083Zm1.895-8.083 2.418-8.083Zm2.418-8.083 3.399-8.412Zm3.399-8.412 4.051-8.674Zm4.051-8.674 4.902-9.004Zm4.902-9.004 5.555-9.594Zm5.555-9.594 6.535-10.252Zm-3.398 175.397-5.817-13.998Zm-5.817-13.998-4.967-12.683Zm-4.967-12.683-4.313-11.829Zm-4.313-11.829-3.398-10.843Zm-3.398-10.843-3.072-9.923Zm-3.072-9.923-2.157-9.661Zm-2.157-9.661-1.895-9.003Zm-1.895-9.003-.915-8.346Zm-.915-8.346-.588-8.083Zm-.588-8.083v-8.083Zm0-8.083.588-7.755Zm.588-7.755.915-7.754Zm.915-7.754 1.895-7.755Zm1.895-7.755 2.157-7.82Zm2.157-7.82 3.072-7.754Zm3.072-7.754 3.398-8.346Zm3.398-8.346 4.313-8.74Zm4.313-8.741 4.967-9.003Zm4.967-9.003 5.817-9.594Zm-7.712 174.806-4.64-14.589Zm-4.64-14.589-4.052-13.012Zm-4.052-13.012-3.659-12.092Zm-3.659-12.092-2.811-11.5Zm-2.811-11.5-2.483-10.252Zm-2.483-10.252-1.83-9.66Zm-1.83-9.66-1.568-9.266Zm-1.568-9.266-.915-8.412Zm-.915-8.412-.327-8.346Zm-.327-8.346v-7.82Zm0-7.82.327-7.755Zm.327-7.755.915-7.754Zm.915-7.754 1.568-7.426Zm1.568-7.426 1.83-7.492Zm1.83-7.492 2.483-7.754Zm2.483-7.754 2.811-8.018Zm2.811-8.018 3.659-8.083Zm3.659-8.083 4.052-8.74Zm4.052-8.74 4.64-9.003ZM49.839 268.086l-.518 1.407c.064.024.13.043.196.058l.322-1.465Zm18.234 4.008-.322 1.465c.057.013.116.022.175.028l.147-1.493ZM87.483 274l-.147 1.493c.049.005.098.007.147.007V274Zm19.802 0v1.5a1.3 1.3 0 0 0 .14-.007l-.14-1.493ZM4.157 216.564l-1.265-.807c-.095.15-.163.315-.201.488l1.466.319ZM2 226.487l-1.466-.318a1.5 1.5 0 0 0 0 .637L2 226.487Zm2.157 9.923-1.466.319c.037.172.105.337.2.486l1.266-.805Zm6.143 9.661-1.266.804c.077.122.171.231.28.325l.986-1.129Zm9.934 8.674-.987 1.13a1.5 1.5 0 0 0 .265.185l.722-1.315Zm13.528 7.426-.722 1.315c.066.036.134.067.204.093l.518-1.408ZM78.268 96.106v1.5c.049 0 .098-.003.147-.007l-.147-1.493Zm-.327-1.5a1.5 1.5 0 1 0 0 3v-3Zm-42.937 31.598 1.473-.281-.001-.008-1.472.289ZM57.36 91.609a1.5 1.5 0 0 0 1.033 2.817l-1.033-2.817ZM44.487 87.95a1.5 1.5 0 0 0 1.424 2.64l-1.424-2.64Zm-9.805-3.237a1.5 1.5 0 0 0 1.95 2.28l-1.95-2.28Zm-7.74-3.411a1.5 1.5 0 0 0 2.53 1.61l-2.53-1.61Zm-6.989-3.297a1.5 1.5 0 0 0 2.914.713l-2.914-.713Zm-5.828-3.94a1.5 1.5 0 1 0 2.937-.608l-2.937.609Zm-4.646-4.101a1.5 1.5 0 1 0 2.949-.554l-2.949.554Zm1.801.643 1.266-.805-.001-.001-1.265.806ZM107.285 2l.153-1.492a1.507 1.507 0 0 0-.153-.008V2ZM87.483 2V.5a1.5 1.5 0 0 0-.147.007L87.483 2Zm-19.41 1.906-.147-1.493a1.501 1.501 0 0 0-.175.028l.322 1.465ZM49.839 7.915l-.322-1.466a1.5 1.5 0 0 0-.196.058l.518 1.408Zm-16.077 5.914-.518-1.408a1.51 1.51 0 0 0-.204.093l.722 1.315Zm-13.528 7.426-.722-1.315a1.496 1.496 0 0 0-.265.185l.987 1.13ZM10.3 29.93l-.987-1.13a1.5 1.5 0 0 0-.279.325l1.266.805Zm-6.143 9.66-1.266-.805a1.5 1.5 0 0 0-.2.486l1.466.319ZM2 49.513l-1.466-.319a1.5 1.5 0 0 0 0 .637L2 49.514Zm2.157 9.923-1.466.319a1.5 1.5 0 0 0 .2.486l1.266-.805Zm6.143 9.66-1.266.805.001.002 1.265-.807Zm92.086 27.93a1.5 1.5 0 0 0 3 0h-3Zm-12.94 0a1.5 1.5 0 1 0 3 0h-3ZM64.42 94.64a1.5 1.5 0 0 0 2.992-.225l-2.992.225Zm-11.419-2.35a1.5 1.5 0 1 0 2.956-.517L53 92.29Zm-10.768-3.015a1.5 1.5 0 0 0 2.925-.664l-2.925.664Zm-9.563-3.592a1.5 1.5 0 0 0 2.838-.972l-2.838.972Zm2.874 69.141a1.5 1.5 0 0 0-2.911-.724l2.911.724ZM23.491 80.849a1.5 1.5 0 1 0 2.766-1.162L23.49 80.85Zm12.07 40.4a1.5 1.5 0 0 0-2.944.578l2.944-.578Zm-20.354-46.15a1.5 1.5 0 0 0 2.603-1.49l-2.603 1.49Zm129.718 193.068.322 1.465c.067-.014.132-.034.196-.057l-.518-1.408Zm-18.233 4.009.14 1.493c.061-.005.122-.015.182-.028l-.322-1.465Zm63.916-55.53 1.465-.319a1.478 1.478 0 0 0-.201-.488l-1.264.807Zm2.156 9.923 1.466.318c.046-.21.046-.427 0-.637l-1.466.319Zm-2.156 9.923 1.265.805c.095-.149.163-.314.2-.486l-1.465-.319Zm-6.144 9.66.987 1.13c.108-.094.202-.204.279-.325l-1.266-.805Zm-9.933 8.675.721 1.315a1.48 1.48 0 0 0 .265-.185l-.986-1.13Zm-13.529 7.426.518 1.408c.07-.026.139-.057.204-.093l-.722-1.315ZM116.497 96.188l-.158 1.491c.052.006.105.008.157.008l.001-1.5Zm.326 1.5a1.5 1.5 0 1 0 0-3v3Zm42.938 28.598-1.472-.289-.002.007 1.474.282Zm-23.39-31.779a1.5 1.5 0 1 0 1.032-2.817l-1.032 2.817Zm12.482-3.834a1.5 1.5 0 0 0 1.425-2.64l-1.425 2.64Zm9.279-3.598a1.5 1.5 0 1 0 1.95-2.279l-1.95 2.28Zm7.16-4.08a1.5 1.5 0 0 0 2.531-1.61l-2.531 1.61Zm6.605-4.195a1.5 1.5 0 0 0 2.914-.712l-2.914.712Zm5.805-5.26a1.5 1.5 0 1 0 2.938.608l-2.938-.608Zm4.635-4.047a1.5 1.5 0 0 0 2.948.554l-2.948-.554Zm1.147 1.197-1.265-.807-.001.002 1.266.805ZM126.692 3.987l.322-1.465a1.535 1.535 0 0 0-.169-.027l-.153 1.492Zm18.233 4.01.518-1.409a1.486 1.486 0 0 0-.196-.057l-.322 1.465Zm16.077 5.914.722-1.315a1.425 1.425 0 0 0-.204-.093l-.518 1.408Zm13.529 7.426.986-1.13a1.476 1.476 0 0 0-.265-.185l-.721 1.315Zm9.933 8.674 1.266-.805a1.5 1.5 0 0 0-.279-.325l-.987 1.13Zm6.144 9.66 1.465-.318a1.484 1.484 0 0 0-.2-.486l-1.265.805Zm2.156 9.924 1.466.318c.046-.21.046-.427 0-.637l-1.466.319Zm-2.156 9.923 1.265.805c.095-.15.163-.314.2-.487l-1.465-.318Zm-6.144 9.66 1.265.806.001-.001-1.266-.805Zm-57.111 25.32a1.5 1.5 0 1 0 2.991.225l-2.991-.225Zm11.455-2.643a1.5 1.5 0 1 0 2.955.517l-2.955-.517Zm10.798-3.163a1.5 1.5 0 1 0 2.925.665l-2.925-.665Zm9.651-3.9a1.5 1.5 0 1 0 2.838.972l-2.838-.971Zm2.874 69.39a1.5 1.5 0 1 0-2.911.724l2.911-.724Zm6.377-74.413a1.5 1.5 0 1 0 2.766 1.162l-2.766-1.162Zm-6.36 42.139a1.5 1.5 0 0 0-2.944-.577l2.944.577Zm14.806-48.218a1.5 1.5 0 0 0 2.604 1.49l-2.604-1.49ZM49.517 269.551l18.234 4.008.644-2.93-18.234-4.009-.644 2.931Zm18.41 4.036 19.41 1.906.292-2.986-19.41-1.906-.293 2.986Zm19.556 1.913h19.802v-3H87.483v3ZM2.69 216.245l-2.157 9.924 2.932.637 2.156-9.924-2.931-.637ZM.534 226.806l2.157 9.923 2.931-.637-2.156-9.923-2.932.637Zm2.357 10.409 6.143 9.66 2.532-1.609-6.144-9.661-2.531 1.61Zm6.422 9.985 9.934 8.675 1.973-2.26-9.933-8.674-1.974 2.259Zm10.199 8.86 13.528 7.426 1.444-2.63-13.529-7.426-1.443 2.63Zm13.732 7.519 16.077 5.914 1.036-2.815-16.077-5.915-1.036 2.816Zm19.67-8.946 16.992 3.746.646-2.93-16.992-3.746-.646 2.93Zm17.162 3.773 17.907 1.84.307-2.984-17.907-1.84-.307 2.984Zm18.06 1.848h18.495v-3H88.136v3ZM9.811 205.092l-1.896 9.266 2.94.601 1.895-9.266-2.94-.601Zm-1.896 9.865 1.895 9.331 2.94-.597-1.895-9.331-2.94.597Zm2.102 9.842 5.555 8.674 2.527-1.618-5.556-8.674-2.526 1.618Zm5.83 8.993 9.214 8.083 1.978-2.255-9.215-8.083-1.978 2.255Zm9.477 8.268 12.352 6.835 1.452-2.625-12.352-6.835-1.452 2.625Zm12.55 6.926 14.835 5.586 1.057-2.808-14.835-5.586-1.057 2.808Zm18.117-8.021 15.75 3.417.636-2.932-15.75-3.417-.636 2.932Zm15.898 3.441 16.665 1.906.34-2.98-16.664-1.906-.341 2.98Zm16.836 1.916h17.318v-3H88.724v3Zm-73.096-51.491-1.83 8.674 2.936.62 1.83-8.675-2.936-.619Zm-1.83 9.294 1.83 8.674 2.935-.619-1.83-8.675-2.935.62Zm2.043 9.186 5.293 8.083 2.51-1.643-5.293-8.083-2.51 1.643Zm5.565 8.394 8.627 7.492L32 226.932l-8.627-7.492-1.967 2.265Zm8.868 7.663 11.437 6.506 1.484-2.608-11.437-6.506-1.484 2.608Zm11.676 6.615 13.855 4.929 1.006-2.826-13.855-4.929-1.006 2.826Zm16.85-7.439 14.508 3.155.637-2.932-14.508-3.154-.638 2.931Zm14.653 3.179 15.75 1.84.348-2.98-15.75-1.84-.348 2.98Zm15.924 1.85h16.077v-3H89.378v3ZM20.93 185.138l-1.895 8.083 2.92.685 1.896-8.083-2.921-.685Zm-1.895 8.768 1.895 8.083 2.92-.685-1.895-8.083-2.92.685Zm2.087 8.542 4.902 7.754 2.536-1.603-4.902-7.754-2.536 1.603Zm5.198 8.096 8.039 6.834 1.943-2.285-8.038-6.835-1.944 2.286Zm8.259 6.989 10.783 6.244 1.503-2.597-10.783-6.243-1.503 2.596Zm11.035 6.36 13.005 4.6 1-2.829-13.005-4.6-1 2.829Zm15.337-6.785 13.92 3.089.65-2.929-13.92-3.088-.65 2.928Zm14.092 3.117 14.77 1.511.306-2.984-14.77-1.512-.306 2.985Zm14.923 1.519h15.162v-3H89.966v3Zm-64.73-45.574-1.569 7.491 2.936.615 1.569-7.492-2.936-.614Zm-1.571 8.096 1.569 7.755 2.94-.595-1.569-7.755-2.94.595Zm1.78 8.273 4.64 7.163 2.518-1.631-4.64-7.163-2.518 1.631Zm4.907 7.473 7.385 6.506 1.983-2.251-7.385-6.506-1.983 2.251Zm7.656 6.696 10.195 5.586 1.442-2.631-10.195-5.586-1.442 2.631Zm10.386 5.673 12.352 4.666 1.06-2.806-12.352-4.666-1.06 2.806Zm14.4-5.85 13.006 2.76.623-2.935-13.006-2.76-.623 2.935Zm13.151 2.783 14.182 1.578.332-2.982-14.182-1.577-.332 2.981Zm14.348 1.587h14.182v-3H90.293v3Zm-61.656-43.419-1.569 7.163 2.93.641 1.57-7.163-2.931-.641Zm-1.568 7.807 1.568 7.098 2.93-.648-1.569-7.097-2.93.647Zm1.774 7.589 4.64 7.163 2.518-1.631-4.64-7.163-2.518 1.631Zm4.905 7.471 7.059 6.244 1.987-2.248-7.058-6.243-1.988 2.247Zm7.332 6.436 9.607 5.257 1.44-2.632-9.607-5.257-1.44 2.632Zm9.806 5.348 11.698 4.337 1.043-2.813-11.698-4.337-1.043 2.813Zm13.142-5.527 12.679 2.76.638-2.931-12.678-2.76-.639 2.931Zm12.825 2.784 13.594 1.578.346-2.98-13.594-1.578-.346 2.98Zm13.767 1.588h13.593v-3H90.62v3Zm-59.237-41.847L29.88 165.9l2.928.65 1.503-6.768-2.928-.651Zm-1.507 7.402 1.503 7.163 2.936-.616-1.503-7.163-2.936.616Zm1.72 7.684 4.314 6.506 2.5-1.658-4.313-6.506-2.5 1.658Zm4.58 6.809 6.796 5.914 1.97-2.263-6.797-5.914-1.97 2.263Zm7.042 6.088 9.28 5.257 1.479-2.61-9.28-5.257-1.48 2.61Zm9.503 5.36 11.11 4.075 1.033-2.817-11.11-4.074-1.033 2.816Zm12.525-5.205 12.025 2.826.686-2.921-12.025-2.826-.686 2.921Zm12.225 2.859 13.005 1.248.287-2.986-13.005-1.249-.287 2.987Zm13.149 1.255h13.593v-3H90.62v3Zm-58.581-32.838 1.503 6.506 2.923-.675-1.503-6.506-2.923.675Zm1.691 6.962 4.052 6.506 2.547-1.586-4.052-6.506-2.547 1.586Zm4.373 6.872 6.797 5.585 1.905-2.317-6.797-5.586-1.905 2.318Zm7.019 5.737 8.953 4.994 1.462-2.62-8.954-4.994-1.461 2.62Zm9.161 5.09 10.784 4.009 1.045-2.812-10.783-4.009-1.046 2.812Zm11.624-4.61 12.025 2.76.671-2.924-12.025-2.76-.67 2.924Zm12.214 2.791 12.678 1.249.294-2.986-12.678-1.249-.294 2.986Zm12.826 1.256h12.94v-3h-12.94v3ZM33.53 150.077l1.242 6.506 2.947-.562-1.242-6.506-2.947.562Zm1.442 7.018 4.052 6.506 2.547-1.586-4.052-6.506-2.547 1.586Zm4.338 6.843 6.47 5.651 1.974-2.259-6.47-5.652-1.974 2.26Zm6.734 5.836 8.953 4.928 1.447-2.628-8.953-4.928-1.447 2.628Zm9.174 5.027 10.522 3.746 1.006-2.826-10.522-3.746-1.006 2.826Zm10.936-4.62 11.764 2.826.7-2.917-11.763-2.826-.701 2.917Zm11.967 2.86 12.678 1.249.294-2.986-12.678-1.249-.294 2.986Zm12.826 1.256h12.94v-3h-12.94v3Zm-56.763-31.974 1.242 6.506 2.946-.563-1.241-6.506-2.947.563Zm1.471 7.063 3.987 5.914 2.487-1.676-3.986-5.915-2.488 1.677Zm4.218 6.183 6.47 5.915 2.025-2.215-6.47-5.914-2.025 2.214Zm6.773 6.129 8.692 4.666 1.419-2.643-8.692-4.666-1.419 2.643Zm8.904 4.759 10.456 3.68.996-2.83-10.456-3.68-.996 2.83Zm10.643-4.022 11.763 2.497.623-2.934-11.763-2.497-.623 2.934Zm11.89 2.519 12.678 1.577.37-2.977-12.678-1.577-.37 2.977Zm12.864 1.588h12.94l-.001-3h-12.94v3ZM34.184 134.24l1.242 6.506 2.946-.563-1.241-6.506-2.947.563Zm1.45 7.032 3.987 6.243 2.529-1.615-3.987-6.243-2.528 1.615Zm4.271 6.571 6.47 5.586 1.96-2.271-6.47-5.586-1.96 2.271Zm6.71 5.755 8.693 4.929 1.48-2.61-8.693-4.929-1.48 2.61Zm8.927 5.036 10.456 3.746 1.012-2.824-10.457-3.746-1.011 2.824Zm10.358-3.96 12.025 2.825.686-2.92-12.025-2.826-.686 2.921Zm12.228 2.859 12.68 1.183.278-2.987-12.679-1.183-.278 2.987Zm12.819 1.189h12.94v-3h-12.94v3Zm12.94-65.365h-12.94v3h12.94v-3Zm-13.088.008-12.678 1.248.294 2.986 12.678-1.249-.294-2.985Zm-12.531 1.24h-.327v3h.327v-3Zm-44.738 31.88 1.242 6.506 2.947-.562-1.242-6.506-2.947.562Zm1.457 7.041 4.052 6.244 2.517-1.634-4.052-6.243-2.517 1.633Zm4.33 6.562 6.47 5.586 1.96-2.271-6.47-5.585-1.96 2.27Zm6.727 5.765 8.953 4.929 1.447-2.629-8.953-4.928-1.447 2.628Zm9.174 5.028 10.522 3.745 1.006-2.826-10.522-3.746-1.006 2.827Zm10.036-3.632 12.025 2.76.67-2.923-12.024-2.761-.671 2.924Zm12.217 2.792 13.005 1.248.287-2.986-13.005-1.249-.287 2.987Zm13.149 1.255h13.593v-3H90.62v3Zm13.593-66.613H90.62v3h13.593v-3Zm-13.73.006-13.005 1.183.272 2.987 13.006-1.182-.272-2.988Zm-13.212 1.216-12.025 2.826.686 2.92 12.025-2.825-.686-2.92Zm-12.198 2.878-7.712 2.826 1.033 2.817 7.711-2.826-1.032-2.817Zm-31.346 36.631 4.052 6.572 2.553-1.575-4.051-6.571-2.554 1.574Zm4.376 6.943 6.797 5.586 1.905-2.318-6.797-5.585-1.905 2.317Zm7.026 5.741 8.954 4.929 1.446-2.628-8.953-4.929-1.447 2.628Zm9.147 5.018 10.783 4.075 1.06-2.807-10.783-4.074-1.06 2.806Zm9.745-3.356 12.679 2.826.652-2.929-12.678-2.825-.653 2.928Zm12.84 2.852 13.593 1.512.331-2.982-13.593-1.511-.332 2.981Zm13.759 1.521h13.593v-3H90.62v3Zm13.593-69.11H90.62v3h13.593v-3Zm-13.766.01L76.853 76.61l.346 2.98 13.594-1.578-.346-2.98Zm-13.74 1.6-12.679 2.761.639 2.931 12.678-2.76-.638-2.931Zm-12.876 2.818-11.11 4.075 1.033 2.816 11.11-4.074-1.033-2.817Zm-11.306 4.163-8.038 4.337 1.424 2.64 8.039-4.337-1.425-2.64Zm-20.928 33.824 4.313 6.506 2.5-1.658-4.313-6.506-2.5 1.658Zm4.579 6.809 6.796 5.914 1.97-2.263-6.797-5.914-1.97 2.263Zm7.042 6.088 9.28 5.257 1.479-2.61-9.28-5.257-1.48 2.61Zm9.51 5.363 11.11 4.009 1.019-2.822-11.11-4.009-1.019 2.822Zm10.031-3.369 13.006 3.089.693-2.919-13.006-3.089-.693 2.919Zm13.186 3.12 14.182 1.577.332-2.981-14.182-1.577-.332 2.981Zm14.348 1.587h14.182v-3H90.293v3Zm14.182-71.937H90.293v3h14.182v-3Zm-14.348.01-14.182 1.577.332 2.981 14.182-1.577-.332-2.982Zm-14.327 1.6-13.006 2.76.623 2.935 13.006-2.76-.623-2.935ZM62.584 69.53l-11.698 4.337 1.043 2.813 11.698-4.337-1.043-2.813ZM50.68 73.962l-9.606 5.323 1.453 2.624 9.607-5.323-1.453-2.624Zm-9.855 5.495-6.143 5.257 1.95 2.28 6.144-5.258-1.95-2.279ZM28.861 109.04l4.64 6.835 2.482-1.685-4.64-6.835-2.482 1.685Zm4.893 7.121 7.059 6.177 1.975-2.257-7.058-6.178-1.976 2.258Zm7.293 6.345 9.607 5.586 1.507-2.593-9.607-5.586-1.508 2.593Zm9.867 5.706 11.698 4.074.987-2.833-11.698-4.074-.987 2.833Zm10.03-3.371 13.92 3.154.664-2.925-13.92-3.155-.664 2.926Zm14.1 3.184 14.77 1.511.305-2.984-14.77-1.512-.306 2.985Zm14.922 1.519h15.162v-3H89.966v3Zm15.162-75.288H89.966v3h15.162v-3Zm-15.314.008-14.77 1.511.305 2.985 14.77-1.512-.305-2.984Zm-14.943 1.54-13.92 3.088.65 2.929 13.92-3.09-.65-2.928Zm-14.125 3.149-12.352 4.666 1.06 2.806 12.352-4.666-1.06-2.806Zm-12.543 4.753-10.195 5.586 1.442 2.631 10.195-5.585-1.442-2.631Zm-10.471 5.781-7.385 6.572L32.34 78.3l7.385-6.572-1.994-2.24Zm-7.654 6.887-3.137 4.929 2.531 1.61 3.137-4.928-2.53-1.61Zm-4.63 23.97 4.64 7.097L32.6 105.8l-4.64-7.098-2.51 1.642Zm4.877 7.377 7.385 6.835 2.038-2.202-7.385-6.834-2.038 2.201Zm7.683 7.049 10.195 5.586 1.442-2.631-10.195-5.586-1.442 2.631Zm10.419 5.686 12.352 4.337.994-2.83-12.352-4.337-.994 2.83Zm10.38-3.037 14.508 3.089.625-2.934-14.508-3.089-.625 2.934Zm14.671 3.114 15.75 1.578.3-2.985-15.75-1.578-.3 2.985Zm15.9 1.585h16.077v-3H89.378v3Zm16.077-79.69H89.378v3h16.077v-3Zm-16.251.01-15.75 1.84.348 2.979 15.75-1.84-.348-2.98ZM73.309 44.3l-14.508 3.155.637 2.931 14.508-3.154-.637-2.932Zm-14.696 3.21-13.006 4.666 1.013 2.823 13.006-4.666-1.013-2.823Zm-13.245 4.776-10.783 6.177 1.491 2.603 10.783-6.177-1.49-2.603Zm-11.01 6.336-8.038 6.834 1.944 2.286 8.038-6.835-1.943-2.285Zm-8.334 7.176-4.902 7.754 2.536 1.603 4.902-7.754-2.536-1.603Zm-5.09 8.2-.981 4.008 2.914.713.98-4.009-2.914-.713Zm.204 17.348 4.902 7.426 2.504-1.652-4.902-7.426-2.503 1.652Zm5.156 7.72 8.039 7.163 1.995-2.24-8.038-7.163-1.996 2.24Zm8.315 7.358 10.783 5.915 1.443-2.631-10.783-5.914-1.443 2.63Zm10.973 6.002 13.006 4.929 1.063-2.805-13.006-4.929-1.063 2.805Zm10.409-3.091 15.75 3.417.636-2.932-15.75-3.417-.636 2.932Zm15.898 3.442 16.665 1.905.34-2.98-16.664-1.906-.341 2.981Zm16.835 1.915h17.319v-3H88.724v3Zm17.319-85.014H88.724v3h17.319v-3Zm-17.489.01-16.665 1.906.34 2.98 16.666-1.906-.341-2.98Zm-16.813 1.93-15.75 3.417.636 2.932 15.75-3.417-.636-2.932Zm-15.935 3.47-13.855 4.929 1.006 2.826 13.855-4.929-1.006-2.826Zm-14.094 5.038-11.437 6.506 1.484 2.608 11.437-6.506-1.484-2.608Zm-11.679 6.677-8.626 7.492 1.967 2.265L32 49.068l-1.967-2.265Zm-8.898 7.803-5.293 8.083 2.51 1.643 5.293-8.083-2.51-1.643ZM15.63 63.2l-1.83 8.675 2.936.619 1.83-8.675-2.936-.62Zm-1.831 9.288.327 1.578 2.937-.609-.326-1.577-2.938.608Zm2.044 9.192 5.293 8.084 2.51-1.644-5.293-8.083-2.51 1.644Zm5.57 8.399 8.627 7.426 1.957-2.274-8.627-7.426-1.957 2.274Zm8.858 7.59 11.437 6.571 1.494-2.601-11.437-6.572-1.494 2.601Zm11.681 6.684 13.855 4.928 1.006-2.826-13.855-4.929-1.006 2.827Zm10.963-3.103 16.992 3.746.646-2.93-16.992-3.746-.646 2.93Zm17.157 3.772 17.907 1.906.317-2.983-17.907-1.906-.317 2.983Zm18.065 1.915h18.495v-3H88.136v3Zm18.495-91.192H88.136v3h18.495v-3Zm-18.648.008-17.907 1.84.307 2.984 17.907-1.84-.307-2.984Zm-18.077 1.868-16.992 3.745.646 2.93 16.992-3.746-.646-2.93ZM52.71 21.428l-14.836 5.586 1.058 2.808 14.835-5.586-1.057-2.808Zm-15.033 5.677L25.324 33.94l1.452 2.625 12.352-6.834-1.452-2.626Zm-12.615 7.02-9.215 8.083 1.978 2.255 9.215-8.083-1.978-2.255Zm-9.489 8.402L10.017 51.2l2.526 1.618 5.556-8.675-2.527-1.617ZM9.81 51.712l-1.895 9.331 2.94.598 1.895-9.332-2.94-.597Zm-1.9 9.907 1.57 8.346 2.948-.554-1.569-8.346-2.948.554Zm2.104 9.793 5.555 8.74 2.532-1.608-5.555-8.74-2.532 1.608Zm5.837 9.068 9.215 8.017 1.969-2.263-9.215-8.017-1.97 2.263Zm9.473 8.198 12.352 6.835 1.452-2.625-12.352-6.835-1.452 2.625Zm12.55 6.926 14.835 5.586 1.057-2.808-14.835-5.586-1.057 2.808Zm11.638-3.029 18.234 4.075.654-2.928-18.234-4.075-.654 2.928Zm18.42 4.104 19.41 1.84.282-2.986-19.41-1.84-.283 2.986Zm19.55 1.847h19.803v-3H87.483v3ZM107.286.5H87.483v3h19.802v-3Zm-19.95.007-19.41 1.906.293 2.986 19.41-1.906-.293-2.986ZM67.751 2.441 49.517 6.449l.644 2.93 18.234-4.008-.644-2.93ZM49.32 6.507 33.244 12.42l1.036 2.816 16.077-5.915-1.036-2.815Zm-16.28 6.007L19.51 19.94l1.445 2.63 13.528-7.426-1.444-2.63Zm-13.794 7.611L9.313 28.8l1.973 2.26 9.934-8.675-1.973-2.26Zm-10.213 9-6.143 9.66 2.531 1.61 6.144-9.66-2.532-1.61ZM2.691 39.27.534 49.194l2.932.637 2.156-9.923-2.931-.637ZM.534 49.831l2.157 9.924 2.931-.637-2.156-9.924-2.932.637Zm2.357 10.41 6.143 9.66 2.532-1.61-6.144-9.66-2.531 1.61Zm6.422 9.985 9.934 8.675 1.973-2.26-9.933-8.674-1.974 2.26Zm10.199 8.86 13.528 7.426 1.444-2.63-13.529-7.426-1.443 2.63Zm13.732 7.519 16.077 5.914 1.036-2.815-16.077-5.915-1.036 2.816Zm18.057 181.814 3.399-14.918-2.925-.666-3.399 14.917 2.925.667Zm3.4-14.922 3.072-13.669-2.928-.658-3.071 13.669 2.927.658Zm3.071-13.667 2.81-12.42-2.926-.663-2.81 12.421 2.926.662Zm2.821-12.473 2.157-11.435-2.948-.556-2.157 11.435 2.948.556Zm2.16-11.457 1.83-10.581-2.955-.511-1.83 10.58 2.956.512Zm1.841-10.65 1.242-9.923-2.977-.373-1.242 9.923 2.977.373Zm1.24-9.912 1.242-9.331-2.974-.396-1.241 9.332 2.973.395Zm1.251-9.417.654-8.674-2.992-.226-.653 8.675 2.991.225Zm.657-8.74.261-8.412-2.998-.093-.261 8.411 2.998.094Zm.262-8.459v-7.754h-3v7.754h3Zm0-7.805-.262-7.754-2.998.101.261 7.754 2.998-.101Zm-.267-7.835-.654-7.426-2.988.263.654 7.426 2.988-.263Zm-.668-7.54-1.242-7.492-2.96.491 1.242 7.492 2.96-.491Zm-1.242-7.494-1.242-7.426-2.959.495 1.242 7.426 2.959-.495Zm-1.264-7.534-1.83-7.492-2.914.712 1.83 7.492 2.914-.712Zm-1.847-7.554-2.156-7.426-2.881.837 2.156 7.425 2.881-.836Zm-2.18-7.5-2.81-8.084-2.834.986 2.81 8.083 2.834-.985Zm-2.825-8.124-3.072-8.083-2.804 1.066 3.072 8.083 2.804-1.066Zm-3.077-8.097-3.398-8.675-2.794 1.095 3.399 8.674 2.793-1.094Zm14.924 173.066 2.156-15.18-2.97-.422-2.156 15.18 2.97.422Zm2.159-15.197 1.83-13.997-2.975-.389-1.83 13.997 2.975.389Zm1.83-14.008 1.57-12.683-2.978-.368-1.568 12.683 2.977.368Zm1.567-12.664 1.569-11.501-2.973-.405-1.569 11.5 2.973.406Zm1.577-11.578.915-10.909-2.99-.251-.915 10.909 2.99.251Zm.914-10.897.915-9.923-2.987-.275-.915 9.923 2.987.275Zm.918-9.965.588-9.267-2.994-.19-.588 9.266 2.994.191Zm.587-9.25.654-8.74-2.992-.224-.654 8.741 2.992.223Zm.658-8.852v-8.346h-3v8.346h3Zm0-8.346v-8.083h-3v8.083h3Zm0-8.083v-7.426h-3v7.426h3Zm-.006-7.556-.653-7.492-2.989.261.653 7.491 2.99-.26Zm-.652-7.48-.589-7.426-2.99.237.588 7.426 2.99-.237Zm-.596-7.498-.915-7.163-2.976.381.915 7.163 2.976-.381Zm-.914-7.156-.915-7.426-2.978.367.915 7.426 2.978-.367Zm-.936-7.55-1.568-7.492-2.936.615 1.568 7.492 2.936-.615Zm-1.566-7.482-1.569-7.754-2.94.595 1.569 7.754 2.94-.595Zm-1.579-7.801-1.83-7.755-2.92.689 1.83 7.755 2.92-.689Zm-1.837-7.785-2.157-8.346-2.905.75 2.157 8.346 2.905-.75Zm17.3 170.907.653-15.246-2.997-.128-.654 15.246 2.997.128Zm.653-15.247.588-13.932-2.997-.126-.588 13.932 2.997.126Zm.587-13.918.654-12.749-2.996-.154-.654 12.749 2.996.154Zm.654-12.752.588-11.828-2.996-.149-.588 11.828 2.996.149Zm.59-11.858.326-10.843-2.998-.09-.327 10.843 2.999.09Zm.326-10.839.327-9.923-2.998-.099-.327 9.923 2.998.099Zm.328-9.972v-9.595h-3v9.595h3Zm-.001-9.539.326-8.74-2.997-.112-.327 8.74 2.998.112Zm.328-8.796v-8.346h-3v8.346h3Zm0-8.346v-7.755h-3v7.755h3Zm0-7.755v-7.82h-3v7.82h3Zm-.002-7.886-.327-7.426-2.997.132.327 7.426 2.997-.132Zm-.325-7.36v-7.163h-3v7.163h3Zm-.002-7.232-.327-7.097-2.996.138.326 7.097 2.997-.138Zm-.326-7.094-.327-7.491-2.997.13.326 7.492 2.998-.131Zm-.33-7.544-.589-7.426-2.99.236.588 7.426 2.99-.236Zm-.59-7.439-.653-7.426-2.989.263.654 7.426 2.988-.263Zm-.652-7.408-.588-7.755-2.992.227.589 7.755 2.991-.227Zm-.588-7.758-.654-8.411-2.99.232.653 8.412 2.99-.233Zm19.152 168.615-.654-15.246-2.997.128.653 15.246 2.998-.128Zm-.654-15.245-.588-13.932-2.997.126.588 13.932 2.997-.126Zm-.588-13.938-.589-12.749-2.996.138.588 12.749 2.997-.138Zm-.588-12.721-.326-11.829-2.999.082.327 11.829 2.998-.082Zm-.328-11.878-.654-10.843-2.995.18.654 10.843 2.995-.18Zm-.652-10.793-.261-9.923-2.999.079.261 9.923 2.999-.079Zm-.261-9.883v-9.595h-3v9.595h3Zm-.001-9.651-.327-8.74-2.997.112.326 8.74 2.998-.112Zm-.325-8.684v-8.346h-3v8.346h3Zm0-8.346v-7.755h-3v7.755h3Zm0-7.755v-7.82h-3v7.82h3Zm-.002-7.754.327-7.426-2.997-.132-.327 7.426 2.997.132Zm.328-7.492v-7.163h-3v7.163h3Zm-.001-7.108.262-7.097-2.998-.111-.262 7.098 2.998.11Zm.257-7.022.654-7.492-2.989-.26-.654 7.491 2.989.261Zm.658-7.556.327-7.426-2.998-.132-.326 7.426 2.997.132Zm.323-7.374.589-7.425-2.991-.237-.588 7.426 2.99.236Zm.589-7.43.588-7.755-2.991-.227-.589 7.755 2.992.227Zm.588-7.752.653-8.412-2.991-.232-.653 8.411 2.991.233Zm-2.741-8.528.001-2.169h-3l-.001 2.169h3Zm-.001-2.112.327-8.675-2.998-.113-.326 8.675 2.997.113Zm.328-8.731v-9.66h-3v9.66h3Zm0-9.621.261-9.923-2.999-.08-.261 9.924 2.999.079Zm.259-9.873.654-10.843-2.995-.18-.654 10.843 2.995.18Zm.656-10.892.326-11.828-2.998-.083-.327 11.829 2.999.082Zm.325-11.8.589-12.75-2.997-.138-.588 12.749 2.996.138Zm.589-12.756.588-13.931-2.997-.127-.588 13.932 2.997.126Zm.588-13.93.654-15.247-2.998-.128-.653 15.246 2.997.129ZM92.447 97.026v-2.169h-3v2.169h3Zm-.002-2.225-.326-8.675-2.998.113.327 8.675 2.997-.113Zm-.325-8.618v-9.66h-3v9.66h3Zm-.001-9.71-.327-9.923-2.998.099.327 9.923 2.998-.099Zm-.327-9.919-.326-10.843-3 .09.328 10.843 2.998-.09Zm-.328-10.873-.588-11.828-2.996.149.588 11.828 2.996-.148Zm-.588-11.83-.654-12.75-2.996.154.654 12.749 2.996-.154Zm-.653-12.736-.588-13.932-2.997.127.588 13.931 2.997-.126Zm-.588-13.933L88.98 1.936l-2.997.128.654 15.247 2.997-.129Zm-9.871 78.812-.654-8.74-2.992.223.654 8.74 2.992-.223Zm-.653-8.724-.588-9.266-2.994.19.588 9.267 2.994-.19Zm-.591-9.308-.915-9.923-2.987.275.914 9.923 2.988-.275Zm-.914-9.911-.915-10.909-2.99.25.915 10.91 2.99-.251Zm-.923-10.986-1.569-11.5-2.973.405 1.569 11.5 2.973-.405Zm-1.567-11.482L73.548 32.9l-2.977.368 1.568 12.683 2.977-.368Zm-1.57-12.694-1.83-13.997-2.974.389 1.83 13.997 2.975-.389Zm-1.832-14.014-2.156-15.18-2.97.422 2.156 15.18 2.97-.422Zm-4.302 75.54-.327-4.336-2.991.225.326 4.337 2.992-.225Zm-.336-4.422-1.242-9.331-2.973.395 1.241 9.332 2.974-.395Zm-1.24-9.32-1.242-9.923-2.977.373 1.242 9.923 2.977-.373Zm-1.252-9.992-1.83-10.58-2.956.51 1.83 10.581 2.956-.511ZM62.75 60.078l-2.157-11.434-2.948.556 2.157 11.434 2.948-.556ZM60.582 48.59l-2.81-12.42-2.926.662 2.81 12.42 2.926-.662Zm-2.81-12.418-3.071-13.669-2.927.658 3.072 13.669 2.927-.658ZM54.7 22.5 51.3 7.58l-2.925.667 3.399 14.917L54.7 22.5Zm1.257 69.274-1.242-7.097-2.955.517 1.242 7.097 2.955-.517Zm-1.246-7.118-1.83-9.66-2.947.558 1.83 9.66 2.947-.558Zm-1.846-9.734L50.382 64.67l-2.916.706 2.484 10.252 2.915-.706Zm-2.484-10.257-2.81-11.435-2.914.716 2.81 11.435 2.914-.716Zm-2.83-11.509-3.66-12.157-2.873.864 3.66 12.158 2.872-.865Zm-3.665-12.171-4.052-13.012-2.864.892 4.052 13.012 2.864-.892Zm-4.055-13.02-4.64-14.59-2.858.91 4.64 14.589 2.858-.91Zm5.327 60.647-1.895-8.346-2.925.664 1.895 8.346 2.925-.664Zm-1.924-8.455-3.071-9.989-2.868.882 3.072 9.989 2.867-.882ZM40.16 70.16l-3.398-10.843-2.863.897 3.398 10.843 2.863-.897Zm-3.42-10.908-4.314-11.83-2.818 1.029 4.313 11.829 2.819-1.028ZM32.414 47.39l-4.967-12.683-2.793 1.093 4.966 12.684 2.794-1.094Zm-4.979-12.712L21.62 20.679l-2.77 1.152 5.816 13.997 2.77-1.151Zm8.073 50.034-2.745-8.017-2.838.971 2.745 8.018 2.838-.972Zm-2.763-8.068-4.052-10.58-2.802 1.073 4.052 10.58 2.802-1.073Zm-4.08-10.647-4.901-11.171-2.747 1.205 4.901 11.172 2.748-1.206Zm-4.912-11.195L18.198 42.71l-2.726 1.253 5.555 12.092 2.726-1.253Zm-5.57-12.123-6.535-13.406-2.696 1.315 6.535 13.406 2.697-1.315ZM5.422 217.37l7.124-11.171-2.53-1.613-7.123 11.171 2.53 1.613Zm7.164-11.238 5.816-10.251-2.609-1.481-5.816 10.252 2.609 1.48Zm5.827-10.271 5.294-9.66-2.631-1.442-5.294 9.661 2.631 1.441Zm5.331-9.733 4.314-9.003-2.706-1.296-4.313 9.003 2.705 1.296Zm4.357-9.104 3.399-8.674-2.794-1.095-3.398 8.675 2.793 1.094Zm3.427-8.753 2.745-8.346-2.85-.937-2.745 8.346 2.85.937Zm2.776-8.453 1.241-4.994-2.911-.724-1.242 4.994 2.912.724Zm-8.046-80.13-2.484-5.915-2.766 1.162 2.484 5.914 2.766-1.162Zm-2.519-5.992-5.293-10.843-2.696 1.316 5.293 10.843 2.696-1.316Zm-5.303-10.862-5.816-11.5-2.677 1.353 5.816 11.5 2.677-1.353Zm-5.854-11.57-7.123-12.42-2.603 1.492 7.124 12.42 2.602-1.492ZM3.272 227.28l7.385-11.829-2.544-1.588-7.385 11.829 2.544 1.588Zm7.431-11.908 5.882-10.843-2.637-1.43-5.882 10.843 2.637 1.43Zm5.9-10.877 5.228-10.251-2.672-1.363-5.228 10.251 2.672 1.363Zm5.242-10.28 4.64-9.594-2.7-1.306-4.64 9.594 2.7 1.306Zm4.694-9.718 3.398-9.003-2.807-1.059-3.398 9.003 2.807 1.059Zm3.423-9.073 2.81-8.741-2.856-.918-2.81 8.74 2.856.919Zm2.83-8.81 2.157-8.018-2.897-.779-2.157 8.018 2.897.779Zm2.185-8.143 1.503-8.412-2.953-.528-1.503 8.412 2.953.528Zm1.521-8.55.654-7.754-2.99-.252-.653 7.754 2.99.252Zm.66-7.88v-8.084h-3v8.084h3Zm-.006-8.21-.654-7.754-2.989.252.654 7.754 2.989-.252Zm-.676-7.917-.915-4.666-2.944.578.915 4.666 2.944-.578ZM17.81 73.608l-1.24-2.168-2.604 1.49 1.242 2.17 2.603-1.492Zm-1.225-2.138-5.882-10.843-2.637 1.43L13.948 72.9l2.637-1.43Zm-5.928-10.922-7.385-11.83-2.544 1.59 7.385 11.828 2.544-1.588Zm-5.2 176.609 7.124-12.421-2.602-1.492-7.124 12.42 2.603 1.493Zm7.162-12.49 5.816-11.501-2.677-1.353-5.816 11.5 2.677 1.354Zm5.826-11.519 5.293-10.844-2.696-1.316-5.293 10.843 2.696 1.317Zm5.321-10.904 4.313-9.923-2.75-1.196-4.314 9.923 2.751 1.196Zm4.353-10.023 3.398-9.66-2.83-.996-3.398 9.66 2.83.996Zm3.413-9.706 2.745-8.674-2.86-.905-2.745 8.674 2.86.905Zm2.77-8.765 2.157-8.674-2.911-.724-2.157 8.674 2.912.724Zm2.186-8.817 1.241-8.412-2.968-.438-1.241 8.412 2.968.438Zm1.252-8.505.654-7.755-2.99-.251-.653 7.754 2.99.252Zm.659-7.88v-8.084h-3v8.084h3Zm-.005-8.21-.654-7.754-2.99.252.654 7.754 2.99-.252Zm-.666-7.856-1.242-8.083-2.965.456 1.242 8.083 2.965-.456Zm-1.276-8.245-2.157-8.017-2.897.779 2.157 8.017 2.897-.779Zm-2.179-8.093-2.745-8.412-2.852.931 2.745 8.412 2.852-.931Zm-2.774-8.493L28.1 98.976l-2.793 1.094 3.399 8.675 2.793-1.094Zm-3.442-8.776-4.314-9.003-2.705 1.296 4.313 9.003 2.706-1.296Zm-4.351-9.076-5.294-9.66-2.63 1.442 5.293 9.66 2.63-1.442ZM18.4 80.12l-5.816-10.251-2.61 1.48L15.793 81.6l2.61-1.48Zm-5.856-10.317L5.421 58.63l-2.53 1.613 7.124 11.171 2.53-1.612Zm-.897 176.926 6.536-13.406-2.697-1.315-6.535 13.406 2.696 1.315Zm6.55-13.437 5.555-12.092-2.726-1.253-5.555 12.092 2.726 1.253Zm5.566-12.116 4.902-11.171-2.748-1.206-4.901 11.172 2.747 1.205Zm4.928-11.235 4.051-10.514-2.799-1.079-4.052 10.514 2.8 1.079Zm4.067-10.556 3.398-9.66-2.83-.996-3.398 9.66 2.83.996Zm3.435-9.782 2.418-9.332-2.904-.752-2.418 9.332 2.904.752Zm2.432-9.388 1.895-8.674-2.93-.641-1.896 8.675 2.93.64Zm1.913-8.775 1.242-8.412-2.968-.438-1.241 8.412 2.967.438Zm1.255-8.526.588-8.346-2.993-.21-.588 8.346 2.993.21Zm.592-8.451v-7.755h-3v7.755h3Zm-.005-7.868-.588-7.755-2.991.227.588 7.755 2.991-.227Zm-.603-7.878-1.241-7.755-2.962.475 1.241 7.754 2.962-.474Zm-1.262-7.86-1.895-8.083-2.921.685 1.895 8.083 2.921-.685Zm-1.919-8.171-2.418-8.083-2.874.86 2.418 8.083 2.874-.86Zm-2.464-8.215-3.398-8.411-2.782 1.123 3.399 8.412 2.781-1.124Zm-3.43-8.484-4.052-8.675-2.718 1.27 4.052 8.674 2.718-1.269Zm-4.094-8.757-4.901-9.004-2.635 1.435 4.901 9.003 2.635-1.434Zm-4.92-9.038-5.556-9.594-2.596 1.503 5.555 9.594 2.597-1.503Zm-5.589-9.65-6.535-10.25-2.53 1.612 6.535 10.251 2.53-1.612Zm3.519 176.78 5.816-13.998-2.77-1.151-5.816 13.998 2.77 1.151Zm5.828-14.027 4.967-12.683-2.794-1.094-4.966 12.683 2.793 1.094Zm4.98-12.716 4.313-11.829-2.819-1.028-4.313 11.829 2.818 1.028Zm4.335-11.894 3.398-10.843-2.862-.897-3.399 10.843 2.863.897Zm3.4-10.848 3.071-9.923-2.865-.888-3.072 9.924 2.866.887Zm3.102-10.04 2.157-9.66-2.928-.654-2.157 9.66 2.928.654Zm2.16-9.678 1.896-9.003-2.935-.618-1.896 9.003 2.936.618Zm1.92-9.149.914-8.346-2.982-.327-.915 8.346 2.982.327Zm.92-8.401.588-8.083-2.992-.217-.589 8.083 2.992.217Zm.591-8.192v-8.083h-3v8.083h3Zm-.004-8.196-.588-7.755-2.991.227.588 7.755 2.991-.227Zm-.594-7.817-.915-7.754-2.98.351.916 7.755 2.979-.352Zm-.947-7.935-1.896-7.754-2.914.712 1.895 7.754 2.914-.712Zm-1.907-7.797-2.157-7.82-2.892.797 2.157 7.821 2.892-.798Zm-2.208-7.974-3.072-7.754-2.789 1.104 3.072 7.755 2.789-1.105Zm-3.077-7.768-3.398-8.346-2.779 1.132 3.399 8.346 2.778-1.132Zm-3.443-8.444-4.313-8.74-2.69 1.328 4.313 8.74 2.69-1.328Zm-4.344-8.8-4.967-9.004-2.627 1.45 4.967 9.002 2.627-1.449Zm-4.998-9.057-5.817-9.595-2.565 1.556 5.816 9.594 2.566-1.555Zm7.858 176.038 4.64-14.589-2.858-.91-4.64 14.589 2.858.91Zm4.643-14.598 4.052-13.012-2.864-.892-4.052 13.012 2.864.892Zm4.056-13.023 3.66-12.092-2.872-.869-3.66 12.092 2.872.869Zm3.68-12.171 2.811-11.5-2.914-.712-2.81 11.5 2.914.712Zm2.812-11.503 2.483-10.252-2.915-.706-2.484 10.252 2.916.706Zm2.5-10.326 1.83-9.66-2.948-.558-1.83 9.66 2.947.558Zm1.834-9.689 1.569-9.266-2.958-.5-1.569 9.266 2.958.5Zm1.581-9.354.915-8.412-2.982-.324-.915 8.412 2.982.324Zm.923-8.515.326-8.346-2.997-.117-.327 8.346 2.998.117Zm.328-8.405v-7.82h-3v7.82h3Zm-.002-7.883-.327-7.755-2.997.127.327 7.754 2.997-.126Zm-.335-7.867-.916-7.755-2.979.352.915 7.754 2.98-.351Zm-.938-7.889-1.568-7.426-2.935.62 1.568 7.426 2.935-.62Zm-1.579-7.472-1.83-7.492-2.914.712 1.83 7.492 2.914-.712Zm-1.858-7.593-2.483-7.755-2.858.915 2.484 7.755 2.857-.915Zm-2.496-7.793-2.81-8.018-2.832.993 2.81 8.017 2.832-.992Zm-2.86-8.14-3.66-8.083-2.733 1.237 3.66 8.083 2.733-1.237Zm-3.665-8.096-4.052-8.74-2.722 1.262 4.052 8.74 2.722-1.262Zm-4.08-8.796-4.64-9.003-2.666 1.374 4.64 9.003 2.666-1.374Zm104.868 173.189-18.233 4.009.644 2.93 18.233-4.009-.644-2.93Zm-18.052 3.98-19.406 1.825.28 2.986 19.407-1.824-.281-2.987Zm62.591-53.718 2.157 9.923 2.931-.637-2.157-9.923-2.931.637Zm2.157 9.286-2.157 9.923 2.931.638 2.157-9.924-2.931-.637Zm-1.957 9.437-6.143 9.66 2.531 1.61 6.143-9.66-2.531-1.61Zm-5.864 9.335-9.934 8.675 1.973 2.26 9.934-8.675-1.973-2.26Zm-9.669 8.49-13.528 7.426 1.443 2.63 13.528-7.426-1.443-2.63Zm-13.324 7.333-16.077 5.914 1.035 2.816 16.077-5.914-1.035-2.816Zm-19.281-9.06-16.992 3.746.646 2.929 16.992-3.746-.646-2.929Zm-16.816 3.718-17.903 1.758.293 2.986 17.904-1.759-.294-2.985Zm57.627-49.729 1.895 9.266 2.939-.601-1.895-9.266-2.939.601Zm1.894 8.667-1.895 9.332 2.94.597 1.895-9.332-2.94-.597Zm-1.688 8.822-5.555 8.674 2.526 1.618 5.555-8.675-2.526-1.617Zm-5.281 8.355-9.215 8.084 1.978 2.255 9.215-8.083-1.978-2.256Zm-8.952 7.899-12.352 6.834 1.453 2.625 12.351-6.834-1.452-2.625Zm-12.154 6.743-14.836 5.586 1.058 2.807 14.835-5.585-1.057-2.808Zm-17.697-8.145-15.75 3.417.636 2.932 15.75-3.418-.636-2.931Zm-15.595 3.392-16.662 1.824.326 2.982 16.662-1.824-.326-2.982Zm53.658-45.975 1.83 8.674 2.935-.619-1.83-8.675-2.935.62Zm1.83 8.055-1.83 8.675 2.935.619 1.83-8.675-2.935-.619Zm-1.617 8.162-5.294 8.084 2.51 1.643 5.293-8.083-2.509-1.644Zm-5.023 7.773-8.626 7.491 1.967 2.265 8.627-7.491-1.968-2.265Zm-8.384 7.32-11.437 6.506 1.483 2.608 11.437-6.506-1.483-2.608Zm-11.198 6.397-13.855 4.928 1.005 2.827 13.855-4.929-1.005-2.826Zm-16.482-7.545-14.508 3.155.637 2.931 14.509-3.154-.638-2.932Zm-14.357 3.13-15.681 1.758.334 2.982 15.682-1.759-.335-2.981Zm49.945-42.92 1.895 8.083 2.921-.685-1.896-8.083-2.92.685Zm1.895 7.398-1.895 8.084 2.92.684 1.896-8.083-2.921-.685Zm-1.703 7.625-4.902 7.754 2.536 1.603 4.902-7.755-2.536-1.602Zm-4.605 7.413-8.039 6.834 1.944 2.286 8.038-6.835-1.943-2.285Zm-7.819 6.679-10.783 6.243 1.503 2.596 10.783-6.243-1.503-2.596Zm-10.532 6.127-13.005 4.6 1 2.828 13.006-4.6-1.001-2.828Zm-14.986-6.885-13.921 3.089.65 2.929 13.92-3.089-.649-2.929Zm-13.744 3.061-14.44 1.429.296 2.986 14.44-1.43-.296-2.985Zm47.172-40.456 1.569 7.492 2.936-.615-1.568-7.492-2.937.615Zm1.567 6.887-1.569 7.754 2.941.595 1.568-7.754-2.94-.595Zm-1.357 7.236-4.64 7.163 2.517 1.631 4.641-7.163-2.518-1.631Zm-4.373 6.853-7.385 6.506 1.983 2.251 7.385-6.506-1.983-2.251Zm-7.114 6.316-10.195 5.586 1.441 2.631 10.195-5.586-1.441-2.631Zm-10.005 5.498-12.352 4.666 1.061 2.807 12.351-4.666-1.06-2.807Zm-13.963-5.978-13.005 2.76.623 2.935 13.005-2.76-.623-2.935Zm-12.851 2.736-14.179 1.495.315 2.984 14.179-1.496-.315-2.983Zm44.701-38.209 1.568 7.163 2.931-.642-1.568-7.163-2.931.642Zm1.569 6.518-1.568 7.098 2.929.647 1.568-7.097-2.929-.648Zm-1.363 6.606-4.64 7.163 2.518 1.631 4.64-7.163-2.518-1.631Zm-4.375 6.855-7.058 6.243 1.988 2.247 7.058-6.243-1.988-2.247Zm-6.784 6.051-9.607 5.257 1.44 2.632 9.607-5.257-1.44-2.632Zm-9.409 5.167-11.698 4.337 1.043 2.813 11.698-4.338-1.043-2.812Zm-12.737-5.646-12.679 2.761.638 2.931 12.679-2.76-.638-2.932Zm-12.525 2.735-13.525 1.496.33 2.982 13.525-1.496-.33-2.982Zm42.88-36.628 1.503 6.769 2.929-.65-1.503-6.769-2.929.65Zm1.499 6.136-1.503 7.163 2.936.616 1.504-7.163-2.937-.616Zm-1.285 6.642-4.313 6.506 2.5 1.658 4.314-6.506-2.501-1.658Zm-4.048 6.203-6.796 5.915 1.969 2.263 6.797-5.915-1.97-2.263Zm-6.551 5.741-9.28 5.258 1.478 2.61 9.281-5.258-1.479-2.61Zm-9.057 5.154-11.111 4.075 1.033 2.816 11.11-4.074-1.032-2.817Zm-12.179-5.309-12.025 2.826.686 2.92 12.025-2.825-.686-2.921Zm-11.817 2.792-12.936 1.167.269 2.988 12.937-1.167-.27-2.988Zm42.787-29.27-1.503 6.506 2.923.675 1.503-6.506-2.923-.675Zm-1.315 6.05-4.051 6.506 2.546 1.586 4.052-6.506-2.547-1.586Zm-3.731 6.14-6.796 5.586 1.904 2.318 6.797-5.586-1.905-2.318Zm-6.575 5.435-8.953 4.995 1.461 2.62 8.954-4.995-1.462-2.62Zm-8.745 4.899-10.784 4.008 1.046 2.812 10.783-4.008-1.045-2.812Zm-11.25-4.722-12.025 2.76.671 2.924 12.025-2.76-.671-2.924Zm-11.828 2.728-12.61 1.167.277 2.987 12.61-1.167-.277-2.987Zm41.929-28.885-1.241 6.506 2.946.562 1.242-6.506-2.947-.562Zm-1.041 5.994-4.052 6.506 2.546 1.586 4.052-6.506-2.546-1.586Zm-3.766 6.169-6.47 5.652 1.974 2.259 6.47-5.652-1.974-2.259Zm-6.206 5.467-8.954 4.929 1.447 2.628 8.953-4.929-1.446-2.628Zm-8.734 4.83-10.521 3.746 1.006 2.826 10.522-3.746-1.007-2.826Zm-10.63-4.711-11.764 2.825.701 2.917 11.764-2.825-.701-2.917Zm-11.552 2.79-12.61 1.167.277 2.987 12.61-1.166-.277-2.988Zm41.276-28.294-1.242 6.506 2.947.562 1.242-6.506-2.947-.562Zm-1.012 5.949-3.987 5.914 2.488 1.677 3.986-5.914-2.487-1.677Zm-3.755 5.646-6.47 5.914 2.024 2.214 6.47-5.914-2.024-2.214Zm-6.168 5.699-8.692 4.666 1.419 2.644 8.692-4.666-1.419-2.644Zm-8.48 4.573-10.457 3.68.996 2.83 10.457-3.68-.996-2.83Zm-10.27-4.127-11.764 2.497.623 2.935 11.764-2.497-.623-2.935Zm-11.629 2.475-12.61 1.496.353 2.979 12.61-1.496-.353-2.979Zm41.314-28.298-1.242 6.506 2.947.562 1.242-6.506-2.947-.562Zm-1.033 5.98-3.986 6.243 2.528 1.614 3.987-6.243-2.529-1.614Zm-3.702 5.915-6.47 5.586 1.96 2.27 6.47-5.585-1.96-2.271Zm-6.23 5.416L137.976 156l1.48 2.61 8.692-4.929-1.48-2.61Zm-8.458 4.822-10.457 3.745 1.012 2.825 10.457-3.746-1.012-2.824Zm-10.033-4.057-12.025 2.826.687 2.92 12.025-2.826-.687-2.92Zm-11.812 2.792-12.61 1.101.261 2.988 12.61-1.101-.261-2.988ZM103.728 96.35l12.61 1.33.315-2.983-12.61-1.33-.315 2.983Zm12.767 1.338h.327v-3h-.326l-.001 3Zm41.791 28.317-1.241 6.506 2.946.563 1.242-6.506-2.947-.563Zm-1.026 5.971-4.052 6.243 2.516 1.633 4.052-6.243-2.516-1.633Zm-3.774 5.924-6.47 5.586 1.96 2.271 6.47-5.586-1.96-2.271Zm-6.213 5.407-8.954 4.929 1.447 2.628 8.953-4.928-1.446-2.629Zm-8.734 4.83-10.521 3.746 1.006 2.826 10.522-3.746-1.007-2.826Zm-9.7-3.729-12.026 2.76.672 2.924 12.025-2.76-.671-2.924Zm-11.825 2.728-12.936 1.167.269 2.988 12.937-1.167-.27-2.988Zm-12.948-59.46 12.937 1.265.292-2.986-12.937-1.264-.292 2.986Zm12.74 1.233 12.025 2.825.686-2.92-12.025-2.826-.686 2.92Zm11.852 2.773 7.712 2.826 1.032-2.817-7.712-2.825-1.032 2.817Zm29.825 32.24-4.052 6.572 2.554 1.574 4.052-6.571-2.554-1.575Zm-3.728 6.2-6.796 5.586 1.904 2.318 6.797-5.586-1.905-2.318Zm-6.567 5.431-8.954 4.929 1.447 2.628 8.953-4.929-1.446-2.628Zm-8.761 4.839-10.783 4.075 1.06 2.806 10.784-4.074-1.061-2.807Zm-9.337-3.478-12.679 2.826.653 2.928 12.678-2.826-.652-2.928Zm-12.51 2.799-13.525 1.429.315 2.984 13.525-1.43-.315-2.983Zm-13.55-61.7 13.525 1.658.365-2.978-13.525-1.658-.365 2.977Zm13.388 1.635 12.679 2.76.638-2.931-12.679-2.76-.638 2.93ZM129.9 82.35l11.111 4.074 1.032-2.817-11.11-4.074-1.033 2.817Zm10.915 3.986 8.038 4.337 1.425-2.64-8.039-4.337-1.424 2.64Zm19.852 29.526-4.313 6.506 2.5 1.658 4.314-6.506-2.501-1.658Zm-4.048 6.203-6.796 5.915 1.969 2.263 6.797-5.914-1.97-2.264Zm-6.551 5.741-9.28 5.258 1.478 2.61 9.281-5.257-1.479-2.611Zm-9.05 5.152-11.11 4.008 1.018 2.822 11.11-4.008-1.018-2.822Zm-9.706-3.466-13.005 3.089.693 2.919 13.005-3.089-.693-2.919Zm-12.816 3.056-14.179 1.496.315 2.983 14.179-1.495-.315-2.984ZM104.3 68.089l14.179 1.659.349-2.98-14.179-1.659-.349 2.98Zm14.042 1.636 13.005 2.76.623-2.934-13.005-2.76-.623 2.934Zm12.795 2.7 11.698 4.337 1.043-2.813-11.698-4.337-1.043 2.813Zm11.493 4.243 9.607 5.322 1.454-2.624-9.607-5.323-1.454 2.624Zm9.359 5.15 6.143 5.257 1.95-2.279-6.143-5.257-1.95 2.28Zm11.432 25.619-4.64 6.834 2.482 1.685 4.64-6.834-2.482-1.685Zm-4.387 6.548-7.058 6.177 1.976 2.258 7.058-6.177-1.976-2.258Zm-6.824 6.009-9.607 5.586 1.508 2.594 9.607-5.586-1.508-2.594Zm-9.346 5.467-11.699 4.074.987 2.833 11.698-4.074-.986-2.833Zm-9.707-3.464-13.92 3.154.663 2.926 13.92-3.154-.663-2.926Zm-13.737 3.125-14.44 1.429.296 2.986 14.44-1.43-.296-2.985Zm-14.456-67.875 14.44 1.593.329-2.982-14.44-1.593-.329 2.982Zm14.279 1.567 13.921 3.088.649-2.928-13.92-3.09-.65 2.93Zm13.715 3.027 12.352 4.666 1.06-2.807-12.351-4.665-1.061 2.806Zm12.162 4.578 10.195 5.586 1.441-2.63-10.195-5.587-1.441 2.631Zm9.918 5.391 7.385 6.572 1.995-2.241-7.385-6.572-1.995 2.241Zm7.117 6.257 3.137 4.928 2.531-1.61-3.137-4.93-2.531 1.612Zm4.65 20.717-4.64 7.097 2.511 1.642 4.64-7.097-2.511-1.642Zm-4.403 6.817-7.385 6.835 2.037 2.202 7.385-6.835-2.037-2.202Zm-7.087 6.62-10.195 5.586 1.441 2.631 10.195-5.586-1.441-2.631Zm-9.972 5.486-12.351 4.338.993 2.83 12.352-4.337-.994-2.831Zm-10.01-3.14-14.509 3.088.625 2.935 14.508-3.089-.624-2.934Zm-14.339 3.062-15.681 1.496.284 2.986 15.682-1.495-.285-2.987Zm-15.721-72.213 15.681 1.922.365-2.978-15.682-1.922-.364 2.978Zm15.545 1.899 14.508 3.154.638-2.931-14.509-3.155-.637 2.932Zm14.321 3.1 13.005 4.666 1.013-2.824-13.005-4.666-1.013 2.824Zm12.766 4.556 10.783 6.177 1.492-2.603-10.784-6.178-1.491 2.604Zm10.557 6.018 8.039 6.835 1.943-2.286-8.038-6.834-1.944 2.285Zm7.743 6.493 4.901 7.755 2.536-1.603-4.902-7.755-2.535 1.603Zm4.712 7.31.98 4.008 2.914-.712-.98-4.009-2.914.713Zm.205 14.983-4.901 7.426 2.503 1.653 4.902-7.426-2.504-1.653Zm-4.647 7.133-8.039 7.163 1.996 2.24 8.038-7.164-1.995-2.24Zm-7.762 6.967-10.784 5.915 1.443 2.63 10.783-5.914-1.442-2.631Zm-10.594 5.828-13.005 4.928 1.063 2.806 13.005-4.929-1.063-2.805Zm-9.982-3.218-15.75 3.417.636 2.932 15.75-3.417-.636-2.932Zm-15.595 3.392-16.662 1.824.326 2.982 16.662-1.824-.326-2.982Zm-16.676-77.21 16.661 1.988.356-2.979-16.662-1.987-.355 2.978Zm16.521 1.965 15.75 3.417.636-2.932-15.75-3.417-.636 2.932Zm15.566 3.364 13.855 4.929 1.005-2.827-13.855-4.928-1.005 2.826Zm13.616 4.82 11.437 6.505 1.483-2.607-11.437-6.506-1.483 2.607Zm11.195 6.334 8.626 7.492 1.968-2.266-8.627-7.491-1.967 2.265Zm8.355 7.18 5.294 8.084 2.509-1.644-5.293-8.083-2.51 1.644Zm5.081 7.572 1.83 8.674 2.935-.619-1.83-8.674-2.935.619Zm1.829 8.06-.327 1.578 2.938.608.326-1.577-2.937-.608Zm-1.616 8.157-5.294 8.084 2.51 1.643 5.293-8.083-2.509-1.644Zm-5.018 7.769-8.626 7.426 1.957 2.273 8.627-7.426-1.958-2.273ZM163 95.15l-11.437 6.571 1.495 2.602 11.437-6.572L163 95.15Zm-11.192 6.459-13.855 4.929 1.005 2.826 13.855-4.929-1.005-2.826Zm-10.604-3.206-16.992 3.746.646 2.929 16.992-3.746-.646-2.93Zm-16.821 3.718-17.904 1.824.304 2.985 17.904-1.824-.304-2.985Zm-17.912-83.383 17.904 1.921.32-2.982-17.904-1.922-.32 2.983Zm17.741 1.895 16.992 3.746.646-2.93-16.992-3.746-.646 2.93Zm16.786 3.685 14.836 5.585 1.057-2.807-14.835-5.586-1.058 2.808Zm14.638 5.494 12.352 6.835 1.452-2.625-12.351-6.835-1.453 2.625Zm12.089 6.65 9.215 8.083 1.978-2.255-9.215-8.083-1.978 2.255Zm8.941 7.764 5.555 8.675 2.526-1.618-5.555-8.675-2.526 1.618Zm5.348 8.164 1.895 9.332 2.94-.597-1.895-9.332-2.94.597Zm1.891 8.757-1.568 8.346 2.948.554 1.569-8.346-2.949-.554Zm-1.687 8.738-5.555 8.74 2.532 1.61 5.555-8.74-2.532-1.61Zm-5.274 8.413-9.214 8.018 1.969 2.263 9.215-8.017-1.97-2.264Zm-8.956 7.837-12.352 6.834 1.453 2.625 12.351-6.834-1.452-2.625Zm-12.154 6.743-14.836 5.586 1.058 2.807 14.835-5.585-1.057-2.808Zm-11.236-3.149-18.233 4.075.654 2.927 18.234-4.074-.655-2.928Zm-18.042 4.045-19.406 1.758.27 2.988 19.407-1.759-.271-2.987ZM107.132 3.492l19.407 1.988.306-2.985L107.438.508l-.306 2.984Zm19.238 1.96 18.233 4.01.644-2.93-18.233-4.01-.644 2.93Zm18.038 3.952 16.077 5.914 1.035-2.815-16.077-5.915-1.035 2.816Zm15.873 5.822 13.528 7.425 1.443-2.63-13.528-7.425-1.443 2.63Zm13.263 7.24 9.934 8.675 1.973-2.26-9.934-8.674-1.973 2.26Zm9.655 8.35 6.143 9.66 2.531-1.61-6.143-9.66-2.531 1.61Zm5.943 9.174 2.157 9.923 2.931-.637-2.157-9.923-2.931.637Zm2.157 9.286-2.157 9.923 2.931.637 2.157-9.923-2.931-.637Zm-1.957 9.437-6.143 9.66 2.531 1.61 6.143-9.66-2.531-1.61Zm-5.864 9.335-9.934 8.675 1.973 2.26 9.934-8.675-1.973-2.26Zm-9.669 8.49-13.528 7.426 1.443 2.63 13.528-7.426-1.443-2.63Zm-13.324 7.333-16.077 5.914 1.035 2.816 16.077-5.915-1.035-2.815Zm-14.097 183.963-3.398-14.918-2.926.667 3.399 14.917 2.925-.666Zm-3.397-14.913-3.072-13.669-2.927.657 3.071 13.669 2.928-.657Zm-3.073-13.671-2.81-12.421-2.926.662 2.81 12.421 2.926-.662Zm-2.799-12.368-2.156-11.434-2.949.556 2.157 11.434 2.948-.556Zm-2.152-11.412-1.83-10.58-2.956.511 1.829 10.58 2.957-.511Zm-1.82-10.511-1.242-9.923-2.977.372 1.242 9.924 2.977-.373Zm-1.243-9.935-1.242-9.332-2.974.396 1.242 9.332 2.974-.396Zm-1.233-9.246-.654-8.675-2.991.225.653 8.675 2.992-.225Zm-.65-8.609-.262-8.412-2.998.094.261 8.411 2.999-.093Zm-.261-8.365v-7.754h-3v7.754h3Zm-.001-7.704.262-7.754-2.999-.102-.261 7.755 2.998.101Zm.257-7.673.653-7.426-2.988-.263-.654 7.426 2.989.263Zm.639-7.313 1.242-7.491-2.96-.491-1.242 7.492 2.96.49Zm1.241-7.489 1.242-7.426-2.959-.495-1.242 7.426 2.959.495Zm1.22-7.318 1.83-7.491-2.915-.712-1.83 7.492 2.915.711Zm1.813-7.429 2.157-7.426-2.881-.836-2.157 7.425 2.881.837Zm2.133-7.352 2.81-8.083-2.833-.985-2.811 8.083 2.834.985Zm2.796-8.042 3.071-8.084-2.804-1.065-3.072 8.083 2.805 1.066Zm3.066-8.069 3.398-8.675-2.793-1.094-3.399 8.674 2.794 1.095Zm-14.747 171.55-2.157-15.181-2.97.422 2.157 15.181 2.97-.422Zm-2.155-15.164-1.83-13.998-2.974.389 1.83 13.998 2.974-.389Zm-1.828-13.987-1.569-12.684-2.977.369 1.568 12.683 2.978-.368Zm-1.571-12.702-1.569-11.5-2.972.405 1.568 11.5 2.973-.405Zm-1.56-11.423-.915-10.909-2.99.251.915 10.909 2.99-.251Zm-.916-10.921-.915-9.924-2.987.276.915 9.923 2.987-.275Zm-.912-9.881-.588-9.266-2.994.19.588 9.266 2.994-.19Zm-.589-9.283-.654-8.74-2.991.224.653 8.74 2.992-.224Zm-.649-8.628v-8.346h-3v8.346h3Zm0-8.346v-8.083h-3v8.083h3Zm0-8.083v-7.426h-3v7.426h3Zm-.006-7.296.653-7.491-2.988-.261-.654 7.491 2.989.261Zm.654-7.503.589-7.426-2.991-.237-.588 7.426 2.99.237Zm.581-7.355.915-7.163-2.976-.38-.915 7.163 2.976.38Zm.916-7.169.915-7.426-2.978-.367-.915 7.426 2.978.367Zm.894-7.302 1.569-7.492-2.937-.615-1.568 7.492 2.936.615Zm1.571-7.502 1.568-7.755-2.94-.594-1.569 7.754 2.941.595Zm1.558-7.707 1.83-7.755-2.92-.689-1.83 7.754 2.92.69Zm1.822-7.724 2.157-8.346-2.905-.75-2.156 8.345 2.904.751Zm-7.995-7.69.654-8.74-2.992-.224-.653 8.74 2.991.224Zm.655-8.757.588-9.266-2.994-.19-.588 9.266 2.994.19Zm.585-9.223.915-9.923-2.987-.276-.915 9.923 2.987.276Zm.916-9.936.915-10.908-2.99-.251-.915 10.909 2.99.25Zm.906-10.831 1.569-11.5-2.973-.406-1.568 11.5 2.972.406Zm1.571-11.52 1.569-12.682-2.978-.369-1.568 12.684 2.977.368Zm1.567-12.672 1.83-13.998-2.974-.388-1.83 13.997 2.974.389Zm1.828-13.981 2.157-15.18-2.97-.423-2.157 15.181 2.97.422Zm4.324 75.344.327-4.337-2.992-.226-.326 4.338 2.991.225Zm.318-4.252 1.242-9.332-2.974-.395-1.242 9.331 2.974.396Zm1.243-9.343 1.242-9.924-2.977-.372-1.242 9.923 2.977.373Zm1.232-9.854 1.83-10.58-2.957-.512-1.829 10.58 2.956.512Zm1.826-10.558 2.156-11.435-2.948-.556-2.157 11.435 2.949.556Zm2.145-11.382 2.81-12.42-2.926-.662-2.81 12.42 2.926.662Zm2.811-12.422 3.072-13.67-2.928-.657-3.071 13.669 2.927.658Zm3.071-13.665 3.398-14.918-2.925-.666-3.399 14.918 2.926.666Zm-1.227 69.125 1.242-7.098-2.956-.517-1.241 7.098 2.955.517Zm1.238-7.077 1.83-9.66-2.948-.559-1.83 9.66 2.948.559Zm1.814-9.586 2.483-10.252-2.915-.706-2.484 10.251 2.916.707Zm2.482-10.247 2.81-11.435-2.913-.716-2.81 11.435 2.913.716Zm2.79-11.36 3.66-12.158-2.873-.865-3.66 12.158 2.873.864Zm3.656-12.144 4.051-13.012-2.864-.892-4.052 13.012 2.865.892Zm4.049-13.004 4.64-14.589-2.859-.909-4.64 14.589 2.859.91Zm-5.261 60.403 1.896-8.346-2.926-.665-1.895 8.346 2.925.665Zm1.867-8.238 3.071-9.989-2.867-.881-3.072 9.989 2.868.881Zm3.069-9.98 3.398-10.844-2.862-.897-3.399 10.843 2.863.897Zm3.376-10.779 4.314-11.829-2.819-1.027-4.313 11.829 2.818 1.027Zm4.301-11.795 4.967-12.684-2.794-1.094-4.966 12.684 2.793 1.094Zm4.955-12.655 5.817-13.998-2.771-1.151-5.816 13.998 2.77 1.15Zm-8.004 49.855 2.745-8.018-2.839-.972-2.744 8.018 2.838.971Zm2.726-7.967 4.052-10.58-2.801-1.074-4.052 10.58 2.801 1.074Zm4.025-10.514 4.902-11.172L171 54.906l-4.901 11.172 2.747 1.206Zm4.891-11.149 5.555-12.091-2.726-1.253-5.555 12.092 2.726 1.252Zm5.54-12.06 6.536-13.407-2.697-1.314-6.535 13.406 2.696 1.315Zm12.595 171.764-7.123-11.172-2.53 1.613 7.124 11.172 2.529-1.613Zm-7.083-11.105-5.817-10.252-2.609 1.48 5.816 10.252 2.61-1.48Zm-5.806-10.233-5.294-9.66-2.63 1.442 5.293 9.66 2.631-1.442Zm-5.256-9.587-4.314-9.003-2.705 1.296 4.313 9.003 2.706-1.296Zm-4.27-8.903-3.398-8.674-2.793 1.094 3.398 8.675 2.793-1.095Zm-3.37-8.596-2.745-8.346-2.85.938 2.745 8.346 2.85-.938Zm-2.714-8.239-1.242-4.994-2.911.724 1.242 4.994 2.911-.724Zm7.901-78.245 2.483-5.915-2.766-1.161-2.483 5.914 2.766 1.162Zm2.448-5.837 5.294-10.844-2.696-1.316-5.294 10.843 2.696 1.317Zm5.284-10.825 5.817-11.5-2.677-1.354-5.817 11.5 2.677 1.354Zm5.779-11.43 7.124-12.421-2.603-1.493-7.123 12.42 2.602 1.493Zm9.252 172.935-7.385-11.829-2.545 1.589 7.385 11.829 2.545-1.589Zm-7.339-11.749-5.882-10.844-2.637 1.431 5.882 10.843 2.637-1.43Zm-5.864-10.81-5.229-10.252-2.672 1.363 5.228 10.252 2.673-1.363Zm-5.214-10.223-4.641-9.595-2.7 1.306 4.64 9.595 2.701-1.306Zm-4.588-9.471-3.398-9.004-2.807 1.06 3.399 9.003 2.806-1.059Zm-3.373-8.933-2.81-8.74-2.856.918 2.81 8.74 2.856-.918Zm-2.79-8.671-2.157-8.017-2.897.779 2.157 8.018 2.897-.78Zm-2.129-7.891-1.503-8.412-2.953.528 1.503 8.411 2.953-.527Zm-1.485-8.274-.653-7.755-2.99.252.654 7.755 2.989-.252Zm-.648-7.629v-8.083h-3v8.083h3Zm-.005-7.957.653-7.754-2.989-.252-.654 7.754 2.99.252Zm.631-7.592.915-4.666-2.944-.577-.915 4.666 2.944.577Zm18.325-51.393 1.241-2.169-2.603-1.49-1.242 2.168 2.604 1.49Zm1.258-2.199 5.882-10.843-2.637-1.43-5.882 10.843 2.637 1.43Zm5.836-10.764 7.385-11.829-2.545-1.589-7.385 11.83 2.545 1.588Zm5.257 173.528-7.124-12.421-2.602 1.493 7.123 12.42 2.603-1.492Zm-7.086-12.351-5.817-11.501-2.677 1.354 5.817 11.501 2.677-1.354Zm-5.807-11.482-5.294-10.843-2.696 1.316 5.294 10.843 2.696-1.316Zm-5.266-10.783-4.314-9.923-2.751 1.196 4.313 9.923 2.752-1.196Zm-4.274-9.823-3.399-9.66-2.83.995 3.399 9.661 2.83-.996Zm-3.384-9.615-2.745-8.675-2.86.905 2.745 8.675 2.86-.905Zm-2.719-8.584-2.157-8.674-2.911.723 2.157 8.675 2.911-.724Zm-2.128-8.532-1.242-8.411-2.968.438 1.242 8.411 2.968-.438Zm-1.231-8.318-.654-7.755-2.989.252.653 7.755 2.99-.252Zm-.649-7.629v-8.083h-3v8.083h3Zm-.005-7.957.654-7.755-2.99-.251-.653 7.754 2.989.252Zm.642-7.653 1.241-8.083-2.965-.455-1.242 8.083 2.966.455Zm1.207-7.921 2.157-8.017-2.897-.78-2.157 8.018 2.897.779Zm2.134-7.942 2.745-8.411-2.852-.931-2.745 8.412 2.852.93Zm2.716-8.329 3.398-8.675-2.793-1.094-3.398 8.674 2.793 1.095Zm3.354-8.574 4.314-9.003-2.706-1.296-4.313 9.003 2.705 1.296Zm4.276-8.93 5.294-9.66-2.631-1.442-5.293 9.66 2.63 1.442Zm5.283-9.641 5.817-10.252-2.61-1.48-5.816 10.251 2.609 1.48Zm5.777-10.186 7.123-11.172-2.529-1.613-7.124 11.172 2.53 1.613Zm1.064 173.999-6.536-13.406-2.696 1.314 6.535 13.407 2.697-1.315Zm-6.521-13.375-5.555-12.092-2.726 1.253 5.555 12.091 2.726-1.252Zm-5.544-12.068-4.902-11.172-2.747 1.205L171 221.257l2.748-1.205Zm-4.876-11.109-4.052-10.514-2.799 1.078 4.052 10.515 2.799-1.079Zm-4.036-10.473-3.399-9.66-2.83.995 3.399 9.661 2.83-.996Zm-3.362-9.539-2.418-9.331-2.904.752 2.418 9.332 2.904-.753Zm-2.405-9.275-1.895-8.675-2.931.641 1.896 8.674 2.93-.64Zm-1.876-8.574-1.242-8.411-2.968.438 1.242 8.411 2.968-.438Zm-1.23-8.298-.588-8.346-2.992.211.588 8.346 2.992-.211Zm-.584-8.24v-7.755h-3v7.755h3Zm-.004-7.641.588-7.755-2.992-.227-.588 7.755 2.992.227Zm.573-7.631 1.242-7.755-2.962-.474-1.242 7.754 2.962.475Zm1.221-7.65 1.895-8.083-2.92-.684-1.896 8.083 2.921.684Zm1.872-7.995 2.418-8.083-2.874-.86-2.418 8.083 2.874.86Zm2.372-7.951 3.398-8.412-2.781-1.124-3.399 8.412 2.782 1.124Zm3.367-8.339 4.051-8.675-2.718-1.27-4.052 8.675 2.719 1.27Zm4.01-8.592 4.901-9.003-2.634-1.435-4.902 9.003 2.635 1.435Zm4.882-8.969 5.555-9.594-2.596-1.504-5.555 9.595 2.596 1.503Zm5.522-9.54 6.535-10.252-2.529-1.612-6.536 10.252 2.53 1.612Zm-3.278 174.015-5.817-13.997-2.77 1.151 5.816 13.997 2.771-1.151Zm-5.805-13.969-4.967-12.683-2.793 1.094 4.966 12.683 2.794-1.094Zm-4.954-12.65-4.314-11.829-2.818 1.028 4.313 11.829 2.819-1.028Zm-4.292-11.764-3.398-10.843-2.863.897 3.399 10.844 2.862-.898Zm-3.397-10.838-3.071-9.923-2.866.887 3.072 9.923 2.865-.887Zm-3.04-9.806-2.157-9.66-2.928.653 2.157 9.66 2.928-.653Zm-2.153-9.643-1.895-9.003-2.936.618 1.895 9.003 2.936-.618Zm-1.872-8.857-.915-8.346-2.982.327.915 8.346 2.982-.327Zm-.91-8.292-.588-8.083-2.992.218.588 8.083 2.992-.218Zm-.584-7.974v-8.083h-3v8.083h3Zm-.004-7.97.588-7.754-2.992-.227-.588 7.755 2.992.226Zm.582-7.692.915-7.754-2.98-.352-.915 7.755 2.98.351Zm.882-7.574 1.895-7.754-2.914-.713-1.895 7.755 2.914.712Zm1.884-7.712 2.157-7.82-2.892-.798-2.157 7.821 2.892.797Zm2.105-7.666 3.072-7.755-2.789-1.105-3.072 7.755 2.789 1.105Zm3.067-7.742 3.398-8.346-2.778-1.131-3.399 8.346 2.779 1.131Zm3.354-8.248 4.313-8.74-2.69-1.327-4.313 8.74 2.69 1.327Zm4.282-8.679 4.967-9.003-2.627-1.45-4.967 9.004 2.627 1.449Zm4.936-8.95 5.816-9.595-2.565-1.555-5.817 9.595 2.566 1.555Zm-7.565 173.573-4.64-14.589-2.859.909 4.64 14.589 2.859-.909Zm-4.638-14.58-4.051-13.012-2.865.892 4.052 13.012 2.864-.892Zm-4.048-13.001-3.66-12.091-2.871.869 3.66 12.091 2.871-.869Zm-3.638-12.013-2.811-11.5-2.914.712 2.81 11.5 2.915-.712Zm-2.81-11.497-2.483-10.252-2.916.706 2.484 10.252 2.915-.706Zm-2.467-10.178-1.83-9.661-2.948.559 1.83 9.66 2.948-.558Zm-1.825-9.632-1.569-9.266-2.957.501 1.568 9.266 2.958-.501Zm-1.556-9.178-.915-8.411-2.983.324.915 8.412 2.983-.325Zm-.908-8.308-.326-8.346-2.998.118.327 8.346 2.997-.118Zm-.325-8.287v-7.82h-3v7.82h3Zm-.002-7.757.327-7.755-2.997-.126-.327 7.755 2.997.126Zm.318-7.642.915-7.755-2.979-.351-.915 7.754 2.979.352Zm.893-7.62 1.569-7.426-2.936-.62-1.568 7.426 2.935.62Zm1.558-7.38 1.83-7.492-2.914-.712-1.83 7.492 2.914.712Zm1.801-7.39 2.484-7.755-2.857-.915-2.484 7.755 2.857.915Zm2.471-7.716 2.81-8.018-2.831-.992-2.81 8.017 2.831.993Zm2.761-7.895 3.66-8.083-2.733-1.238-3.66 8.083 2.733 1.238Zm3.654-8.071 4.052-8.74-2.722-1.262-4.052 8.74 2.722 1.262Zm4.025-8.684 4.64-9.003-2.667-1.375-4.64 9.004 2.667 1.374Z"/></svg>